{"asset":{"version":"2.0","generator":"Blockbench 5.0.4 glTF exporter"},"scenes":[{"nodes":[1,3,4,7,10,12],"name":"blockbench_export"}],"scene":0,"nodes":[{"name":"right_leg"},{"translation":[0.6875,-7.125,-0.125],"name":"right_leg","mesh":0,"children":[0],"skin":0},{"name":"left_leg"},{"translation":[0.03125,-6.375,0.28125],"name":"left_leg","mesh":1,"children":[2],"skin":1},{"rotation":[0,0,0.6427876096865393,0.766044443118978],"translation":[-0.1875,-0.21875,0.375],"name":"left_elbow","mesh":2},{"rotation":[0,0,-0.06540312923014306,0.9978589232386035],"translation":[1.5,0,0],"name":"right_forearm"},{"rotation":[0,0,-0.6427876096865393,0.766044443118978],"name":"right_bicep","children":[5]},{"rotation":[0,0,-0.6427876096865393,0.766044443118978],"translation":[0.9375,-0.25,0.28125],"name":"right_bicep","mesh":3,"children":[6],"skin":2},{"translation":[0,0.5,0.375],"name":"neck"},{"name":"torso","children":[8]},{"translation":[0.375,-1,-0.0625],"name":"torso","mesh":4,"children":[9],"skin":3},{"name":"head_area"},{"translation":[0.5625,0.8125,-0.125],"name":"head_area","mesh":5,"children":[11],"skin":4}],"bufferViews":[{"buffer":0,"byteOffset":0,"byteLength":17568,"target":34962,"byteStride":12},{"buffer":0,"byteOffset":17568,"byteLength":17568,"target":34962,"byteStride":12},{"buffer":0,"byteOffset":35136,"byteLength":11712,"target":34962,"byteStride":8},{"buffer":0,"byteOffset":46848,"byteLength":11712,"target":34962,"byteStride":8},{"buffer":0,"byteOffset":58560,"byteLength":23424,"target":34962,"byteStride":16},{"buffer":0,"byteOffset":81984,"byteLength":4176,"target":34963},{"buffer":0,"byteOffset":86160,"byteLength":17568,"target":34962,"byteStride":12},{"buffer":0,"byteOffset":103728,"byteLength":17568,"target":34962,"byteStride":12},{"buffer":0,"byteOffset":121296,"byteLength":11712,"target":34962,"byteStride":8},{"buffer":0,"byteOffset":133008,"byteLength":11712,"target":34962,"byteStride":8},{"buffer":0,"byteOffset":144720,"byteLength":23424,"target":34962,"byteStride":16},{"buffer":0,"byteOffset":168144,"byteLength":4176,"target":34963},{"buffer":0,"byteOffset":172320,"byteLength":33888,"target":34962,"byteStride":12},{"buffer":0,"byteOffset":206208,"byteLength":33888,"target":34962,"byteStride":12},{"buffer":0,"byteOffset":240096,"byteLength":22592,"target":34962,"byteStride":8},{"buffer":0,"byteOffset":262688,"byteLength":7440,"target":34963},{"buffer":0,"byteOffset":270128,"byteLength":33888,"target":34962,"byteStride":12},{"buffer":0,"byteOffset":304016,"byteLength":33888,"target":34962,"byteStride":12},{"buffer":0,"byteOffset":337904,"byteLength":22592,"target":34962,"byteStride":8},{"buffer":0,"byteOffset":360496,"byteLength":22592,"target":34962,"byteStride":8},{"buffer":0,"byteOffset":383088,"byteLength":45184,"target":34962,"byteStride":16},{"buffer":0,"byteOffset":428272,"byteLength":7440,"target":34963},{"buffer":0,"byteOffset":435712,"byteLength":107040,"target":34962,"byteStride":12},{"buffer":0,"byteOffset":542752,"byteLength":107040,"target":34962,"byteStride":12},{"buffer":0,"byteOffset":649792,"byteLength":71360,"target":34962,"byteStride":8},{"buffer":0,"byteOffset":721152,"byteLength":71360,"target":34962,"byteStride":8},{"buffer":0,"byteOffset":792512,"byteLength":142720,"target":34962,"byteStride":16},{"buffer":0,"byteOffset":935232,"byteLength":26688,"target":34963},{"buffer":0,"byteOffset":961920,"byteLength":90240,"target":34962,"byteStride":12},{"buffer":0,"byteOffset":1052160,"byteLength":90240,"target":34962,"byteStride":12},{"buffer":0,"byteOffset":1142400,"byteLength":60160,"target":34962,"byteStride":8},{"buffer":0,"byteOffset":1202560,"byteLength":60160,"target":34962,"byteStride":8},{"buffer":0,"byteOffset":1262720,"byteLength":120320,"target":34962,"byteStride":16},{"buffer":0,"byteOffset":1383040,"byteLength":20976,"target":34963},{"buffer":0,"byteOffset":1404016,"byteLength":1440,"target":34963},{"buffer":0,"byteOffset":1405456,"byteLength":64},{"buffer":0,"byteOffset":1405520,"byteLength":64},{"buffer":0,"byteOffset":1405584,"byteLength":128},{"buffer":0,"byteOffset":1405712,"byteLength":128},{"buffer":0,"byteOffset":1405840,"byteLength":64},{"buffer":0,"byteOffset":1405904,"byteLength":20},{"buffer":0,"byteOffset":1405924,"byteLength":80},{"buffer":0,"byteOffset":1406004,"byteLength":16},{"buffer":0,"byteOffset":1406020,"byteLength":48},{"buffer":0,"byteOffset":1406068,"byteLength":16},{"buffer":0,"byteOffset":1406084,"byteLength":64}],"buffers":[{"byteLength":1406148,"uri":"data:application/octet-stream;base64,"}],"accessors":[{"bufferView":0,"componentType":5126,"count":1464,"max":[0.25,4.5,0.706250011920929],"min":[-0.3125,-0.1907549947500229,-0.571581244468689],"type":"VEC3"},{"bufferView":1,"componentType":5126,"count":1464,"max":[0.9998868107795715,1,0.9997418522834778],"min":[-0.9998868107795715,-1,-0.9998868107795715],"type":"VEC3"},{"bufferView":2,"componentType":5126,"count":1464,"max":[0.060546875,0.16554373502731323],"min":[0,0],"type":"VEC2"},{"bufferView":3,"componentType":5123,"count":1464,"max":[0,0,0,0],"min":[0,0,0,0],"type":"VEC4"},{"bufferView":4,"componentType":5126,"count":1464,"max":[0,1,0,0],"min":[0,1,0,0],"type":"VEC4"},{"bufferView":5,"componentType":5123,"count":2088,"max":[1463],"min":[0],"type":"SCALAR"},{"bufferView":6,"componentType":5126,"count":1464,"max":[0.28125,3.75,0.30000001192092896],"min":[-0.28125,-0.9407550096511841,-0.977831244468689],"type":"VEC3"},{"bufferView":7,"componentType":5126,"count":1464,"max":[0.9998868107795715,1,0.9997418522834778],"min":[-0.9998868107795715,-1,-0.9998868107795715],"type":"VEC3"},{"bufferView":8,"componentType":5126,"count":1464,"max":[0.060546875,0.16554373502731323],"min":[0,0],"type":"VEC2"},{"bufferView":9,"componentType":5123,"count":1464,"max":[0,0,0,0],"min":[0,0,0,0],"type":"VEC4"},{"bufferView":10,"componentType":5126,"count":1464,"max":[0,1,0,0],"min":[0,1,0,0],"type":"VEC4"},{"bufferView":11,"componentType":5123,"count":2088,"max":[1463],"min":[0],"type":"SCALAR"},{"bufferView":12,"componentType":5126,"count":2824,"max":[0.25,0.15625,0.125],"min":[-3.6875,-0.28125,-0.5116362571716309],"type":"VEC3"},{"bufferView":13,"componentType":5126,"count":2824,"max":[1,1,1],"min":[-1,-1,-1],"type":"VEC3"},{"bufferView":14,"componentType":5126,"count":2824,"max":[0.25312501192092896,0.25],"min":[0,0],"type":"VEC2"},{"bufferView":15,"componentType":5123,"count":3720,"max":[2823],"min":[0],"type":"SCALAR"},{"bufferView":16,"componentType":5126,"count":2824,"max":[3.668785572052002,0.1875,0.21875],"min":[-0.25,-0.290519118309021,-0.41788625717163086],"type":"VEC3"},{"bufferView":17,"componentType":5126,"count":2824,"max":[1,1,1],"min":[-1,-1,-1],"type":"VEC3"},{"bufferView":18,"componentType":5126,"count":2824,"max":[0.25312501192092896,0.25],"min":[0,0],"type":"VEC2"},{"bufferView":19,"componentType":5123,"count":2824,"max":[0,1,0,0],"min":[0,0,0,0],"type":"VEC4"},{"bufferView":20,"componentType":5126,"count":2824,"max":[0,1,0,0],"min":[0,1,0,0],"type":"VEC4"},{"bufferView":21,"componentType":5123,"count":3720,"max":[2823],"min":[0],"type":"SCALAR"},{"bufferView":22,"componentType":5126,"count":8920,"max":[0.656251847743988,1.46875,0.8709668517112732],"min":[-0.6712062358856201,-1.7113605737686157,-0.1343425065279007],"type":"VEC3"},{"bufferView":23,"componentType":5126,"count":8920,"max":[1,1,0.9995487928390503],"min":[-1,-1,-0.9999405741691589],"type":"VEC3"},{"bufferView":24,"componentType":5126,"count":8920,"max":[0.99609375,0.54296875],"min":[0,0],"type":"VEC2"},{"bufferView":25,"componentType":5123,"count":8920,"max":[0,1,0,0],"min":[0,0,0,0],"type":"VEC4"},{"bufferView":26,"componentType":5126,"count":8920,"max":[0,1,0,0],"min":[0,1,0,0],"type":"VEC4"},{"bufferView":27,"componentType":5123,"count":13344,"max":[8919],"min":[0],"type":"SCALAR"},{"bufferView":28,"componentType":5126,"count":7520,"max":[0.29589375853538513,0.5524381399154663,0.8675122261047363],"min":[-0.6700037717819214,-0.6156587600708008,-0.13606484234333038],"type":"VEC3"},{"bufferView":29,"componentType":5126,"count":7520,"max":[0.9980453848838806,0.9995197653770447,0.9979396462440491],"min":[-0.9980413317680359,-0.9974056482315063,-0.9981040954589844],"type":"VEC3"},{"bufferView":30,"componentType":5126,"count":7520,"max":[0.984375,0.643701434135437],"min":[0,0],"type":"VEC2"},{"bufferView":31,"componentType":5123,"count":7520,"max":[0,0,0,0],"min":[0,0,0,0],"type":"VEC4"},{"bufferView":32,"componentType":5126,"count":7520,"max":[0,1,0,0],"min":[0,1,0,0],"type":"VEC4"},{"bufferView":33,"componentType":5123,"count":10488,"max":[6991],"min":[0],"type":"SCALAR"},{"bufferView":34,"componentType":5123,"count":720,"max":[7519],"min":[6992],"type":"SCALAR"},{"bufferView":35,"componentType":5126,"count":1,"max":[1,0,0,0,0,1,0,0,0,0,1,0,0,0,0,1],"min":[1,0,0,0,0,1,0,0,0,0,1,0,0,0,0,1],"type":"MAT4"},{"bufferView":36,"componentType":5126,"count":1,"max":[1,0,0,0,0,1,0,0,0,0,1,0,0,0,0,1],"min":[1,0,0,0,0,1,0,0,0,0,1,0,0,0,0,1],"type":"MAT4"},{"bufferView":37,"componentType":5126,"count":2,"max":[0.1736481785774231,0.9990482330322266,0,0,-0.9848077297210693,0.1736481785774231,0,0,0,0,1,0,0,0,0,1],"min":[0.04361938685178757,0.9848077297210693,0,0,-0.9990482330322266,0.04361938685178757,0,0,0,0,1,0,-1.487167239189148,-0.19578929245471954,0,1],"type":"MAT4"},{"bufferView":38,"componentType":5126,"count":2,"max":[1,0,0,0,0,1,0,0,0,0,1,0,0,0,0,1],"min":[1,0,0,0,0,1,0,0,0,0,1,0,0,-0.5,-0.375,1],"type":"MAT4"},{"bufferView":39,"componentType":5126,"count":1,"max":[1,0,0,0,0,1,0,0,0,0,1,0,0,0,0,1],"min":[1,0,0,0,0,1,0,0,0,0,1,0,0,0,0,1],"type":"MAT4"},{"bufferView":40,"componentType":5126,"count":5,"max":[1.7083333730697632],"min":[0],"type":"SCALAR"},{"bufferView":41,"componentType":5126,"count":5,"max":[-0.0544942207634449,0.0668330267071724,0.24537383019924164,0.9961922764778137],"min":[-0.0779981017112732,0.04076346755027771,0.0544942207634449,0.9643416404724121],"type":"VEC4"},{"bufferView":42,"componentType":5126,"count":4,"max":[1.7083333730697632],"min":[0.375],"type":"SCALAR"},{"bufferView":43,"componentType":5126,"count":4,"max":[0.5,0.8125,-0.125],"min":[0.25,0.8125,-0.125],"type":"VEC3"},{"bufferView":44,"componentType":5126,"count":4,"max":[1.7083333730697632],"min":[0.375],"type":"SCALAR"},{"bufferView":45,"componentType":5126,"count":4,"max":[0,0,0.06540312618017197,0.9997619986534119],"min":[0,0,-0.02181488461792469,0.9978589415550232],"type":"VEC4"}],"materials":[{"pbrMetallicRoughness":{"metallicFactor":0,"roughnessFactor":1,"baseColorTexture":{"index":0}},"alphaMode":"MASK","alphaCutoff":0.05,"doubleSided":true},{"pbrMetallicRoughness":{"metallicFactor":0,"roughnessFactor":1,"baseColorTexture":{"index":1}},"alphaMode":"MASK","alphaCutoff":0.05,"doubleSided":true},{"pbrMetallicRoughness":{"metallicFactor":0,"roughnessFactor":1,"baseColorTexture":{"index":2}},"alphaMode":"MASK","alphaCutoff":0.05,"doubleSided":true}],"textures":[{"sampler":0,"source":0,"name":"texture.png"},{"sampler":1,"source":1,"name":"shadow_head_unsmiling.png"},{"sampler":2,"source":2,"name":"shadow_eyes.png"}],"samplers":[{"magFilter":9728,"minFilter":9728,"wrapS":33071,"wrapT":33071},{"magFilter":9728,"minFilter":9728,"wrapS":33071,"wrapT":33071},{"magFilter":9728,"minFilter":9728,"wrapS":33071,"wrapT":33071}],"images":[{"mimeType":"image/png","uri":"data:image/png;base64,"},{"mimeType":"image/png","uri":"data:image/png;base64,"},{"mimeType":"image/png","uri":"data:image/png;base64,"}],"meshes":[{"primitives":[{"mode":4,"attributes":{"POSITION":0,"NORMAL":1,"TEXCOORD_0":2,"JOINTS_0":3,"WEIGHTS_0":4},"indices":5,"material":0}]},{"primitives":[{"mode":4,"attributes":{"POSITION":6,"NORMAL":7,"TEXCOORD_0":8,"JOINTS_0":9,"WEIGHTS_0":10},"indices":11,"material":0}]},{"primitives":[{"mode":4,"attributes":{"POSITION":12,"NORMAL":13,"TEXCOORD_0":14},"indices":15,"material":0}]},{"primitives":[{"mode":4,"attributes":{"POSITION":16,"NORMAL":17,"TEXCOORD_0":18,"JOINTS_0":19,"WEIGHTS_0":20},"indices":21,"material":0}]},{"primitives":[{"mode":4,"attributes":{"POSITION":22,"NORMAL":23,"TEXCOORD_0":24,"JOINTS_0":25,"WEIGHTS_0":26},"indices":27,"material":0}]},{"primitives":[{"mode":4,"attributes":{"POSITION":28,"NORMAL":29,"TEXCOORD_0":30,"JOINTS_0":31,"WEIGHTS_0":32},"indices":33,"material":1},{"mode":4,"attributes":{"POSITION":28,"NORMAL":29,"TEXCOORD_0":30,"JOINTS_0":31,"WEIGHTS_0":32},"indices":34,"material":2}]}],"skins":[{"inverseBindMatrices":35,"joints":[0],"skeleton":0},{"inverseBindMatrices":36,"joints":[2],"skeleton":2},{"inverseBindMatrices":37,"joints":[6,5],"skeleton":6},{"inverseBindMatrices":38,"joints":[9,8],"skeleton":9},{"inverseBindMatrices":39,"joints":[11],"skeleton":11}],"animations":[{"name":"ponder","samplers":[{"input":40,"output":41,"interpolation":"LINEAR"},{"input":42,"output":43,"interpolation":"LINEAR"},{"input":44,"output":45,"interpolation":"LINEAR"}],"channels":[{"sampler":0,"target":{"node":11,"path":"rotation"}},{"sampler":1,"target":{"node":11,"path":"translation"}},{"sampler":2,"target":{"node":8,"path":"rotation"}}]}]}