{"asset":{"version":"2.0","generator":"Blockbench 5.0.4 glTF exporter"},"scenes":[{"nodes":[0,1,3,6,8,10,12,14,16],"name":"blockbench_export"}],"scene":0,"nodes":[{"translation":[0,0.25,0.25],"name":"carbody","mesh":0},{"name":"underhood","mesh":1},{"name":"hoodgroup"},{"translation":[0.32499999999999996,0.5187499999999999,0],"name":"hoodgroup","mesh":2,"children":[2],"skin":0},{"rotation":[-4.1209914269225367e-20,0.7071067811865475,4.120991426922537e-20,0.7071067811865476],"name":"fuses"},{"name":"fuseblock","children":[4]},{"translation":[0.4375,0.4062500000000001,-0.15],"name":"fuseblock","mesh":3,"children":[5],"skin":1},{"name":"wheel"},{"translation":[0.25,0.1875,-0.5375],"name":"wheel","mesh":4,"children":[7],"skin":2},{"name":"wheel4"},{"translation":[0.25,0.1875,0.5375],"name":"wheel4","mesh":5,"children":[9],"skin":3},{"name":"wheel2"},{"translation":[-0.4375,0.1875,-0.5375],"name":"wheel2","mesh":6,"children":[11],"skin":4},{"name":"wheel3"},{"translation":[-0.4375,0.1875,0.5375],"name":"wheel3","mesh":7,"children":[13],"skin":5},{"name":"coolant"},{"translation":[0.4624999999999999,0.4437500000000002,-0.11875000000000005],"name":"coolant","mesh":8,"children":[15],"skin":6}],"bufferViews":[{"buffer":0,"byteOffset":0,"byteLength":7488,"target":34962,"byteStride":12},{"buffer":0,"byteOffset":7488,"byteLength":7488,"target":34962,"byteStride":12},{"buffer":0,"byteOffset":14976,"byteLength":4992,"target":34962,"byteStride":8},{"buffer":0,"byteOffset":19968,"byteLength":1872,"target":34963},{"buffer":0,"byteOffset":21840,"byteLength":672,"target":34962,"byteStride":12},{"buffer":0,"byteOffset":22512,"byteLength":672,"target":34962,"byteStride":12},{"buffer":0,"byteOffset":23184,"byteLength":448,"target":34962,"byteStride":8},{"buffer":0,"byteOffset":23632,"byteLength":168,"target":34963},{"buffer":0,"byteOffset":23800,"byteLength":96,"target":34962,"byteStride":12},{"buffer":0,"byteOffset":23896,"byteLength":96,"target":34962,"byteStride":12},{"buffer":0,"byteOffset":23992,"byteLength":64,"target":34962,"byteStride":8},{"buffer":0,"byteOffset":24056,"byteLength":64,"target":34962,"byteStride":8},{"buffer":0,"byteOffset":24120,"byteLength":128,"target":34962,"byteStride":16},{"buffer":0,"byteOffset":24248,"byteLength":24,"target":34963},{"buffer":0,"byteOffset":24272,"byteLength":35808,"target":34962,"byteStride":12},{"buffer":0,"byteOffset":60080,"byteLength":35808,"target":34962,"byteStride":12},{"buffer":0,"byteOffset":95888,"byteLength":23872,"target":34962,"byteStride":8},{"buffer":0,"byteOffset":119760,"byteLength":23872,"target":34962,"byteStride":8},{"buffer":0,"byteOffset":143632,"byteLength":47744,"target":34962,"byteStride":16},{"buffer":0,"byteOffset":191376,"byteLength":60,"target":34963},{"buffer":0,"byteOffset":191436,"byteLength":60,"target":34963},{"buffer":0,"byteOffset":191496,"byteLength":8832,"target":34963},{"buffer":0,"byteOffset":200328,"byteLength":6144,"target":34962,"byteStride":12},{"buffer":0,"byteOffset":206472,"byteLength":6144,"target":34962,"byteStride":12},{"buffer":0,"byteOffset":212616,"byteLength":4096,"target":34962,"byteStride":8},{"buffer":0,"byteOffset":216712,"byteLength":4096,"target":34962,"byteStride":8},{"buffer":0,"byteOffset":220808,"byteLength":8192,"target":34962,"byteStride":16},{"buffer":0,"byteOffset":229000,"byteLength":192,"target":34963},{"buffer":0,"byteOffset":229192,"byteLength":1152,"target":34963},{"buffer":0,"byteOffset":230344,"byteLength":6144,"target":34962,"byteStride":12},{"buffer":0,"byteOffset":236488,"byteLength":6144,"target":34962,"byteStride":12},{"buffer":0,"byteOffset":242632,"byteLength":4096,"target":34962,"byteStride":8},{"buffer":0,"byteOffset":246728,"byteLength":4096,"target":34962,"byteStride":8},{"buffer":0,"byteOffset":250824,"byteLength":8192,"target":34962,"byteStride":16},{"buffer":0,"byteOffset":259016,"byteLength":192,"target":34963},{"buffer":0,"byteOffset":259208,"byteLength":1152,"target":34963},{"buffer":0,"byteOffset":260360,"byteLength":6144,"target":34962,"byteStride":12},{"buffer":0,"byteOffset":266504,"byteLength":6144,"target":34962,"byteStride":12},{"buffer":0,"byteOffset":272648,"byteLength":4096,"target":34962,"byteStride":8},{"buffer":0,"byteOffset":276744,"byteLength":4096,"target":34962,"byteStride":8},{"buffer":0,"byteOffset":280840,"byteLength":8192,"target":34962,"byteStride":16},{"buffer":0,"byteOffset":289032,"byteLength":192,"target":34963},{"buffer":0,"byteOffset":289224,"byteLength":1152,"target":34963},{"buffer":0,"byteOffset":290376,"byteLength":6144,"target":34962,"byteStride":12},{"buffer":0,"byteOffset":296520,"byteLength":6144,"target":34962,"byteStride":12},{"buffer":0,"byteOffset":302664,"byteLength":4096,"target":34962,"byteStride":8},{"buffer":0,"byteOffset":306760,"byteLength":4096,"target":34962,"byteStride":8},{"buffer":0,"byteOffset":310856,"byteLength":8192,"target":34962,"byteStride":16},{"buffer":0,"byteOffset":319048,"byteLength":192,"target":34963},{"buffer":0,"byteOffset":319240,"byteLength":1152,"target":34963},{"buffer":0,"byteOffset":320392,"byteLength":7104,"target":34962,"byteStride":12},{"buffer":0,"byteOffset":327496,"byteLength":7104,"target":34962,"byteStride":12},{"buffer":0,"byteOffset":334600,"byteLength":4736,"target":34962,"byteStride":8},{"buffer":0,"byteOffset":339336,"byteLength":4736,"target":34962,"byteStride":8},{"buffer":0,"byteOffset":344072,"byteLength":9472,"target":34962,"byteStride":16},{"buffer":0,"byteOffset":353544,"byteLength":1704,"target":34963},{"buffer":0,"byteOffset":355248,"byteLength":64},{"buffer":0,"byteOffset":355312,"byteLength":128},{"buffer":0,"byteOffset":355440,"byteLength":64},{"buffer":0,"byteOffset":355504,"byteLength":64},{"buffer":0,"byteOffset":355568,"byteLength":64},{"buffer":0,"byteOffset":355632,"byteLength":64},{"buffer":0,"byteOffset":355696,"byteLength":64},{"buffer":0,"byteOffset":355760,"byteLength":24},{"buffer":0,"byteOffset":355784,"byteLength":96}],"buffers":[{"byteLength":355880,"uri":"data:application/octet-stream;base64,"}],"accessors":[{"bufferView":0,"componentType":5126,"count":624,"max":[0.625,0.5375000238418579,0.15625],"min":[-0.75,-0.04374999925494194,-0.65625],"type":"VEC3"},{"bufferView":1,"componentType":5126,"count":624,"max":[1,1,1],"min":[-1,-1,-1],"type":"VEC3"},{"bufferView":2,"componentType":5126,"count":624,"max":[0.37890625,0.66015625],"min":[0.001953125,0.0019531259313225746],"type":"VEC2"},{"bufferView":3,"componentType":5123,"count":936,"max":[623],"min":[0],"type":"SCALAR"},{"bufferView":4,"componentType":5126,"count":56,"max":[0.625,0.518750011920929,0.40625],"min":[0.32499998807907104,0.4005003273487091,-0.40625],"type":"VEC3"},{"bufferView":5,"componentType":5126,"count":56,"max":[0.9957374334335327,0.9988462924957275,0.9991151094436646],"min":[-0.7684412002563477,-0.2987518608570099,-0.999178946018219],"type":"VEC3"},{"bufferView":6,"componentType":5126,"count":56,"max":[0.75,0.5],"min":[0,0],"type":"VEC2"},{"bufferView":7,"componentType":5123,"count":84,"max":[55],"min":[0],"type":"SCALAR"},{"bufferView":8,"componentType":5126,"count":8,"max":[0.30000001192092896,-3.3113684017038736e-10,0.40625],"min":[2.980232505223057e-9,-0.09166666865348816,-0.40625],"type":"VEC3"},{"bufferView":9,"componentType":5126,"count":8,"max":[0.6970784068107605,0.9965457320213318,0],"min":[0.08304548263549805,0.7169949412345886,0],"type":"VEC3"},{"bufferView":10,"componentType":5126,"count":8,"max":[0.8125,0.4375],"min":[0,0],"type":"VEC2"},{"bufferView":11,"componentType":5123,"count":8,"max":[0,0,0,0],"min":[0,0,0,0],"type":"VEC4"},{"bufferView":12,"componentType":5126,"count":8,"max":[0,1,0,0],"min":[0,1,0,0],"type":"VEC4"},{"bufferView":13,"componentType":5123,"count":12,"max":[7],"min":[0],"type":"SCALAR"},{"bufferView":14,"componentType":5126,"count":2984,"max":[0.13124999403953552,0.08124999701976776,0.15000000596046448],"min":[-0.0625,-7.284952189773239e-21,-0.1875],"type":"VEC3"},{"bufferView":15,"componentType":5126,"count":2984,"max":[1,1,1],"min":[-1,-1,-1],"type":"VEC3"},{"bufferView":16,"componentType":5126,"count":2984,"max":[1,0.9375],"min":[0,0],"type":"VEC2"},{"bufferView":17,"componentType":5123,"count":2984,"max":[0,1,0,0],"min":[0,0,0,0],"type":"VEC4"},{"bufferView":18,"componentType":5126,"count":2984,"max":[0,1,0,0],"min":[0,1,0,0],"type":"VEC4"},{"bufferView":19,"componentType":5123,"count":30,"max":[19],"min":[0],"type":"SCALAR"},{"bufferView":20,"componentType":5123,"count":30,"max":[39],"min":[20],"type":"SCALAR"},{"bufferView":21,"componentType":5123,"count":4416,"max":[2983],"min":[40],"type":"SCALAR"},{"bufferView":22,"componentType":5126,"count":512,"max":[0.1875,0.1875,0.16249999403953552],"min":[-0.1875,-0.1875,-0.006249999161809683],"type":"VEC3"},{"bufferView":23,"componentType":5126,"count":512,"max":[1,1,1],"min":[-1,-1,-1],"type":"VEC3"},{"bufferView":24,"componentType":5126,"count":512,"max":[0.653124988079071,0.6499999761581421],"min":[0,0],"type":"VEC2"},{"bufferView":25,"componentType":5123,"count":512,"max":[0,0,0,0],"min":[0,0,0,0],"type":"VEC4"},{"bufferView":26,"componentType":5126,"count":512,"max":[0,1,0,0],"min":[0,1,0,0],"type":"VEC4"},{"bufferView":27,"componentType":5123,"count":96,"max":[79],"min":[0],"type":"SCALAR"},{"bufferView":28,"componentType":5123,"count":576,"max":[511],"min":[80],"type":"SCALAR"},{"bufferView":29,"componentType":5126,"count":512,"max":[0.1875,0.1875,0.006249999161809683],"min":[-0.1875,-0.1875,-0.16249999403953552],"type":"VEC3"},{"bufferView":30,"componentType":5126,"count":512,"max":[1,1,1],"min":[-1,-1,-1],"type":"VEC3"},{"bufferView":31,"componentType":5126,"count":512,"max":[0.653124988079071,0.6499999761581421],"min":[0,0],"type":"VEC2"},{"bufferView":32,"componentType":5123,"count":512,"max":[0,0,0,0],"min":[0,0,0,0],"type":"VEC4"},{"bufferView":33,"componentType":5126,"count":512,"max":[0,1,0,0],"min":[0,1,0,0],"type":"VEC4"},{"bufferView":34,"componentType":5123,"count":96,"max":[79],"min":[0],"type":"SCALAR"},{"bufferView":35,"componentType":5123,"count":576,"max":[511],"min":[80],"type":"SCALAR"},{"bufferView":36,"componentType":5126,"count":512,"max":[0.1875,0.1875,0.16249999403953552],"min":[-0.1875,-0.1875,-0.006249999161809683],"type":"VEC3"},{"bufferView":37,"componentType":5126,"count":512,"max":[1,1,1],"min":[-1,-1,-1],"type":"VEC3"},{"bufferView":38,"componentType":5126,"count":512,"max":[0.653124988079071,0.6499999761581421],"min":[0,0],"type":"VEC2"},{"bufferView":39,"componentType":5123,"count":512,"max":[0,0,0,0],"min":[0,0,0,0],"type":"VEC4"},{"bufferView":40,"componentType":5126,"count":512,"max":[0,1,0,0],"min":[0,1,0,0],"type":"VEC4"},{"bufferView":41,"componentType":5123,"count":96,"max":[79],"min":[0],"type":"SCALAR"},{"bufferView":42,"componentType":5123,"count":576,"max":[511],"min":[80],"type":"SCALAR"},{"bufferView":43,"componentType":5126,"count":512,"max":[0.1875,0.1875,0.006249999161809683],"min":[-0.1875,-0.1875,-0.16249999403953552],"type":"VEC3"},{"bufferView":44,"componentType":5126,"count":512,"max":[1,1,1],"min":[-1,-1,-1],"type":"VEC3"},{"bufferView":45,"componentType":5126,"count":512,"max":[0.653124988079071,0.6499999761581421],"min":[0,0],"type":"VEC2"},{"bufferView":46,"componentType":5123,"count":512,"max":[0,0,0,0],"min":[0,0,0,0],"type":"VEC4"},{"bufferView":47,"componentType":5126,"count":512,"max":[0,1,0,0],"min":[0,1,0,0],"type":"VEC4"},{"bufferView":48,"componentType":5123,"count":96,"max":[79],"min":[0],"type":"SCALAR"},{"bufferView":49,"componentType":5123,"count":576,"max":[511],"min":[80],"type":"SCALAR"},{"bufferView":50,"componentType":5126,"count":592,"max":[0.11145050078630447,0.05631247162818909,0.4281249940395355],"min":[-0.043383680284023285,-0.0555083341896534,0.125],"type":"VEC3"},{"bufferView":51,"componentType":5126,"count":592,"max":[0.9996573328971863,0.9996573328971863,1],"min":[-0.9996573328971863,-0.9996573328971863,-1],"type":"VEC3"},{"bufferView":52,"componentType":5126,"count":592,"max":[0.8097015619277954,0.7950999736785889],"min":[0,0],"type":"VEC2"},{"bufferView":53,"componentType":5123,"count":592,"max":[0,0,0,0],"min":[0,0,0,0],"type":"VEC4"},{"bufferView":54,"componentType":5126,"count":592,"max":[0,1,0,0],"min":[0,1,0,0],"type":"VEC4"},{"bufferView":55,"componentType":5123,"count":852,"max":[591],"min":[0],"type":"SCALAR"},{"bufferView":56,"componentType":5126,"count":1,"max":[1,0,0,0,0,1,0,0,0,0,1,0,0,0,0,1],"min":[1,0,0,0,0,1,0,0,0,0,1,0,0,0,0,1],"type":"MAT4"},{"bufferView":57,"componentType":5126,"count":2,"max":[1,0,1,0,2.588134929401505e-35,1,1.1655923503637182e-19,0,0,0,1,0,0,0,0,1],"min":[2.220446049250313e-16,-1.1655923503637182e-19,0,0,0,1,0,0,-1,-1.8072258860056163e-36,2.220446049250313e-16,0,0,0,0,1],"type":"MAT4"},{"bufferView":58,"componentType":5126,"count":1,"max":[1,0,0,0,0,1,0,0,0,0,1,0,0,0,0,1],"min":[1,0,0,0,0,1,0,0,0,0,1,0,0,0,0,1],"type":"MAT4"},{"bufferView":59,"componentType":5126,"count":1,"max":[1,0,0,0,0,1,0,0,0,0,1,0,0,0,0,1],"min":[1,0,0,0,0,1,0,0,0,0,1,0,0,0,0,1],"type":"MAT4"},{"bufferView":60,"componentType":5126,"count":1,"max":[1,0,0,0,0,1,0,0,0,0,1,0,0,0,0,1],"min":[1,0,0,0,0,1,0,0,0,0,1,0,0,0,0,1],"type":"MAT4"},{"bufferView":61,"componentType":5126,"count":1,"max":[1,0,0,0,0,1,0,0,0,0,1,0,0,0,0,1],"min":[1,0,0,0,0,1,0,0,0,0,1,0,0,0,0,1],"type":"MAT4"},{"bufferView":62,"componentType":5126,"count":1,"max":[1,0,0,0,0,1,0,0,0,0,1,0,0,0,0,1],"min":[1,0,0,0,0,1,0,0,0,0,1,0,0,0,0,1],"type":"MAT4"},{"bufferView":63,"componentType":5126,"count":6,"max":[0.25],"min":[0],"type":"SCALAR"},{"bufferView":64,"componentType":5126,"count":6,"max":[0,0,0.6755902171134949,1],"min":[0,0,0,0.7372773289680481],"type":"VEC4"}],"materials":[{"pbrMetallicRoughness":{"metallicFactor":0,"roughnessFactor":1,"baseColorTexture":{"index":0}},"alphaMode":"MASK","alphaCutoff":0.05,"doubleSided":true},{"pbrMetallicRoughness":{"metallicFactor":0,"roughnessFactor":1,"baseColorTexture":{"index":1}},"alphaMode":"MASK","alphaCutoff":0.05,"doubleSided":true},{"pbrMetallicRoughness":{"metallicFactor":0,"roughnessFactor":1,"baseColorTexture":{"index":2}},"alphaMode":"MASK","alphaCutoff":0.05,"doubleSided":true},{"pbrMetallicRoughness":{"metallicFactor":0,"roughnessFactor":1},"alphaMode":"MASK","alphaCutoff":0.05,"doubleSided":true},{"pbrMetallicRoughness":{"metallicFactor":0,"roughnessFactor":1,"baseColorTexture":{"index":3}},"alphaMode":"MASK","alphaCutoff":0.05,"doubleSided":true},{"pbrMetallicRoughness":{"metallicFactor":0,"roughnessFactor":1,"baseColorTexture":{"index":4}},"alphaMode":"MASK","alphaCutoff":0.05,"doubleSided":true},{"pbrMetallicRoughness":{"metallicFactor":0,"roughnessFactor":1,"baseColorTexture":{"index":5}},"alphaMode":"MASK","alphaCutoff":0.05,"doubleSided":true},{"pbrMetallicRoughness":{"metallicFactor":0,"roughnessFactor":1,"baseColorTexture":{"index":6}},"alphaMode":"MASK","alphaCutoff":0.05,"doubleSided":true},{"pbrMetallicRoughness":{"metallicFactor":0,"roughnessFactor":1,"baseColorTexture":{"index":7}},"alphaMode":"MASK","alphaCutoff":0.05,"doubleSided":true}],"textures":[{"sampler":0,"source":0,"name":"carbodTex.png"},{"sampler":1,"source":1,"name":"underhoodTex.png"},{"sampler":2,"source":2,"name":"lidTex.png"},{"sampler":3,"source":3,"name":"fuseblockTex.png"},{"sampler":4,"source":4,"name":"FuseTex.png"},{"sampler":5,"source":5,"name":"boltTex.png"},{"sampler":6,"source":6,"name":"tireTex.png"},{"sampler":7,"source":7,"name":"coolantTankTex.png"}],"samplers":[{"magFilter":9728,"minFilter":9728,"wrapS":33071,"wrapT":33071},{"magFilter":9728,"minFilter":9728,"wrapS":33071,"wrapT":33071},{"magFilter":9728,"minFilter":9728,"wrapS":33071,"wrapT":33071},{"magFilter":9728,"minFilter":9728,"wrapS":33071,"wrapT":33071},{"magFilter":9728,"minFilter":9728,"wrapS":33071,"wrapT":33071},{"magFilter":9728,"minFilter":9728,"wrapS":33071,"wrapT":33071},{"magFilter":9728,"minFilter":9728,"wrapS":33071,"wrapT":33071},{"magFilter":9728,"minFilter":9728,"wrapS":33071,"wrapT":33071}],"images":[{"mimeType":"image/png","uri":"data:image/png;base64,"},{"mimeType":"image/png","uri":"data:image/png;base64,"},{"mimeType":"image/png","uri":"data:image/png;base64,"},{"mimeType":"image/png","uri":"data:image/png;base64,"},{"mimeType":"image/png","uri":"data:image/png;base64,"},{"mimeType":"image/png","uri":"data:image/png;base64,"},{"mimeType":"image/png","uri":"data:image/png;base64,"},{"mimeType":"image/png","uri":"data:image/png;base64,"}],"meshes":[{"primitives":[{"mode":4,"attributes":{"POSITION":0,"NORMAL":1,"TEXCOORD_0":2},"indices":3,"material":0}]},{"primitives":[{"mode":4,"attributes":{"POSITION":4,"NORMAL":5,"TEXCOORD_0":6},"indices":7,"material":1}]},{"primitives":[{"mode":4,"attributes":{"POSITION":8,"NORMAL":9,"TEXCOORD_0":10,"JOINTS_0":11,"WEIGHTS_0":12},"indices":13,"material":2}]},{"primitives":[{"mode":4,"attributes":{"POSITION":14,"NORMAL":15,"TEXCOORD_0":16,"JOINTS_0":17,"WEIGHTS_0":18},"indices":19,"material":3},{"mode":4,"attributes":{"POSITION":14,"NORMAL":15,"TEXCOORD_0":16,"JOINTS_0":17,"WEIGHTS_0":18},"indices":20,"material":4},{"mode":4,"attributes":{"POSITION":14,"NORMAL":15,"TEXCOORD_0":16,"JOINTS_0":17,"WEIGHTS_0":18},"indices":21,"material":5}]},{"primitives":[{"mode":4,"attributes":{"POSITION":22,"NORMAL":23,"TEXCOORD_0":24,"JOINTS_0":25,"WEIGHTS_0":26},"indices":27,"material":6},{"mode":4,"attributes":{"POSITION":22,"NORMAL":23,"TEXCOORD_0":24,"JOINTS_0":25,"WEIGHTS_0":26},"indices":28,"material":7}]},{"primitives":[{"mode":4,"attributes":{"POSITION":29,"NORMAL":30,"TEXCOORD_0":31,"JOINTS_0":32,"WEIGHTS_0":33},"indices":34,"material":6},{"mode":4,"attributes":{"POSITION":29,"NORMAL":30,"TEXCOORD_0":31,"JOINTS_0":32,"WEIGHTS_0":33},"indices":35,"material":7}]},{"primitives":[{"mode":4,"attributes":{"POSITION":36,"NORMAL":37,"TEXCOORD_0":38,"JOINTS_0":39,"WEIGHTS_0":40},"indices":41,"material":6},{"mode":4,"attributes":{"POSITION":36,"NORMAL":37,"TEXCOORD_0":38,"JOINTS_0":39,"WEIGHTS_0":40},"indices":42,"material":7}]},{"primitives":[{"mode":4,"attributes":{"POSITION":43,"NORMAL":44,"TEXCOORD_0":45,"JOINTS_0":46,"WEIGHTS_0":47},"indices":48,"material":6},{"mode":4,"attributes":{"POSITION":43,"NORMAL":44,"TEXCOORD_0":45,"JOINTS_0":46,"WEIGHTS_0":47},"indices":49,"material":7}]},{"primitives":[{"mode":4,"attributes":{"POSITION":50,"NORMAL":51,"TEXCOORD_0":52,"JOINTS_0":53,"WEIGHTS_0":54},"indices":55,"material":8}]}],"skins":[{"inverseBindMatrices":56,"joints":[2],"skeleton":2},{"inverseBindMatrices":57,"joints":[5,4],"skeleton":5},{"inverseBindMatrices":58,"joints":[7],"skeleton":7},{"inverseBindMatrices":59,"joints":[9],"skeleton":9},{"inverseBindMatrices":60,"joints":[11],"skeleton":11},{"inverseBindMatrices":61,"joints":[13],"skeleton":13},{"inverseBindMatrices":62,"joints":[15],"skeleton":15}],"animations":[{"name":"Anim_hoodopen","samplers":[{"input":63,"output":64,"interpolation":"LINEAR"}],"channels":[{"sampler":0,"target":{"node":2,"path":"rotation"}}]}]}