{"asset":{"version":"2.0","generator":"Blockbench 5.0.4 glTF exporter"},"scenes":[{"nodes":[0,1,4,7,8,11,14,15,21,22,23],"name":"blockbench_export"}],"scene":0,"nodes":[{"translation":[0,0.015625,0],"name":"body","mesh":0},{"rotation":[0,0,-0.7071067811865475,0.7071067811865476],"translation":[0.5625,0.296875,0.0625],"name":"head","mesh":1},{"name":"cube","mesh":2},{"translation":[0.03125,-0.21875,0],"name":"cube","mesh":3},{"translation":[0.1875,0.03125,-0.0625],"name":"right_leg","children":[2,3]},{"translation":[0.03125,-0.21875,0],"name":"cube","mesh":4},{"name":"cube","mesh":5},{"translation":[0.1875,0.03125,0.1875],"name":"left_leg","children":[5,6]},{"translation":[-0.25,-0.1875,-0.0625],"name":"right_back_leg"},{"translation":[0,0.21875,0.125],"name":"cube","mesh":6},{"translation":[0,0,0.125],"name":"cube","mesh":7},{"translation":[-0.25,-0.1875,0.0625],"name":"right_front_leg","children":[9,10]},{"translation":[0,0.21875,0],"name":"cube","mesh":8},{"name":"cube","mesh":9},{"translation":[-0.25,-0.1875,-0.0625],"name":"right_front_leg2","children":[12,13]},{"rotation":[0,0,-0.10886687485196457,0.9940563382223196],"translation":[0.671875,0.2375,0.0625],"name":"tongue","mesh":10},{"rotation":[0.2999633501439988,0.7951963324215184,-0.09985203583841787,0.5174112024421951],"translation":[0,-0.09999999999999998,-0.0006250000000000006],"name":"bottom_left_fang","mesh":11},{"rotation":[-0.2999633501439988,-0.7951963324215184,-0.09985203583841787,0.5174112024421951],"translation":[0,-0.09999999999999998,0.100625],"name":"bottom_right_fang","mesh":12},{"translation":[0.125,-0.04999999999999999,0.05],"name":"cube","mesh":13},{"rotation":[-6.6661734910316944e-18,-0.10886687485196457,-0.9940563382223196,6.086839563880512e-17],"translation":[-0.015625,0,0.1],"name":"top_left_fang","mesh":14},{"rotation":[6.6661734910316944e-18,0.10886687485196457,-0.9940563382223196,6.086839563880512e-17],"translation":[-0.015625,0,0],"name":"top_right_fang","mesh":15},{"translation":[0.625,0.3625,0.0125],"name":"teeth","children":[16,17,18,19,20]},{"translation":[0.540625,0.4,0.01875],"name":"left_eye","mesh":16},{"translation":[0.540625,0.4,0.10625],"name":"right_eye","mesh":17}],"bufferViews":[{"buffer":0,"byteOffset":0,"byteLength":8112,"target":34962,"byteStride":12},{"buffer":0,"byteOffset":8112,"byteLength":8112,"target":34962,"byteStride":12},{"buffer":0,"byteOffset":16224,"byteLength":5408,"target":34962,"byteStride":8},{"buffer":0,"byteOffset":21632,"byteLength":2016,"target":34963},{"buffer":0,"byteOffset":23648,"byteLength":7788,"target":34962,"byteStride":12},{"buffer":0,"byteOffset":31436,"byteLength":7788,"target":34962,"byteStride":12},{"buffer":0,"byteOffset":39224,"byteLength":5192,"target":34962,"byteStride":8},{"buffer":0,"byteOffset":44416,"byteLength":1832,"target":34963},{"buffer":0,"byteOffset":46248,"byteLength":1800,"target":34962,"byteStride":12},{"buffer":0,"byteOffset":48048,"byteLength":1800,"target":34962,"byteStride":12},{"buffer":0,"byteOffset":49848,"byteLength":1200,"target":34962,"byteStride":8},{"buffer":0,"byteOffset":51048,"byteLength":444,"target":34963},{"buffer":0,"byteOffset":51492,"byteLength":1248,"target":34962,"byteStride":12},{"buffer":0,"byteOffset":52740,"byteLength":1248,"target":34962,"byteStride":12},{"buffer":0,"byteOffset":53988,"byteLength":832,"target":34962,"byteStride":8},{"buffer":0,"byteOffset":54820,"byteLength":312,"target":34963},{"buffer":0,"byteOffset":55132,"byteLength":1248,"target":34962,"byteStride":12},{"buffer":0,"byteOffset":56380,"byteLength":1248,"target":34962,"byteStride":12},{"buffer":0,"byteOffset":57628,"byteLength":832,"target":34962,"byteStride":8},{"buffer":0,"byteOffset":58460,"byteLength":312,"target":34963},{"buffer":0,"byteOffset":58772,"byteLength":1800,"target":34962,"byteStride":12},{"buffer":0,"byteOffset":60572,"byteLength":1800,"target":34962,"byteStride":12},{"buffer":0,"byteOffset":62372,"byteLength":1200,"target":34962,"byteStride":8},{"buffer":0,"byteOffset":63572,"byteLength":444,"target":34963},{"buffer":0,"byteOffset":64016,"byteLength":1932,"target":34962,"byteStride":12},{"buffer":0,"byteOffset":65948,"byteLength":1932,"target":34962,"byteStride":12},{"buffer":0,"byteOffset":67880,"byteLength":1288,"target":34962,"byteStride":8},{"buffer":0,"byteOffset":69168,"byteLength":464,"target":34963},{"buffer":0,"byteOffset":69632,"byteLength":1248,"target":34962,"byteStride":12},{"buffer":0,"byteOffset":70880,"byteLength":1248,"target":34962,"byteStride":12},{"buffer":0,"byteOffset":72128,"byteLength":832,"target":34962,"byteStride":8},{"buffer":0,"byteOffset":72960,"byteLength":312,"target":34963},{"buffer":0,"byteOffset":73272,"byteLength":1932,"target":34962,"byteStride":12},{"buffer":0,"byteOffset":75204,"byteLength":1932,"target":34962,"byteStride":12},{"buffer":0,"byteOffset":77136,"byteLength":1288,"target":34962,"byteStride":8},{"buffer":0,"byteOffset":78424,"byteLength":464,"target":34963},{"buffer":0,"byteOffset":78888,"byteLength":1248,"target":34962,"byteStride":12},{"buffer":0,"byteOffset":80136,"byteLength":1248,"target":34962,"byteStride":12},{"buffer":0,"byteOffset":81384,"byteLength":832,"target":34962,"byteStride":8},{"buffer":0,"byteOffset":82216,"byteLength":312,"target":34963},{"buffer":0,"byteOffset":82528,"byteLength":2256,"target":34962,"byteStride":12},{"buffer":0,"byteOffset":84784,"byteLength":2256,"target":34962,"byteStride":12},{"buffer":0,"byteOffset":87040,"byteLength":1504,"target":34962,"byteStride":8},{"buffer":0,"byteOffset":88544,"byteLength":552,"target":34963},{"buffer":0,"byteOffset":89096,"byteLength":1152,"target":34962,"byteStride":12},{"buffer":0,"byteOffset":90248,"byteLength":1152,"target":34962,"byteStride":12},{"buffer":0,"byteOffset":91400,"byteLength":768,"target":34962,"byteStride":8},{"buffer":0,"byteOffset":92168,"byteLength":288,"target":34963},{"buffer":0,"byteOffset":92456,"byteLength":1152,"target":34962,"byteStride":12},{"buffer":0,"byteOffset":93608,"byteLength":1152,"target":34962,"byteStride":12},{"buffer":0,"byteOffset":94760,"byteLength":768,"target":34962,"byteStride":8},{"buffer":0,"byteOffset":95528,"byteLength":288,"target":34963},{"buffer":0,"byteOffset":95816,"byteLength":936,"target":34962,"byteStride":12},{"buffer":0,"byteOffset":96752,"byteLength":936,"target":34962,"byteStride":12},{"buffer":0,"byteOffset":97688,"byteLength":624,"target":34962,"byteStride":8},{"buffer":0,"byteOffset":98312,"byteLength":228,"target":34963},{"buffer":0,"byteOffset":98540,"byteLength":1152,"target":34962,"byteStride":12},{"buffer":0,"byteOffset":99692,"byteLength":1152,"target":34962,"byteStride":12},{"buffer":0,"byteOffset":100844,"byteLength":768,"target":34962,"byteStride":8},{"buffer":0,"byteOffset":101612,"byteLength":288,"target":34963},{"buffer":0,"byteOffset":101900,"byteLength":1152,"target":34962,"byteStride":12},{"buffer":0,"byteOffset":103052,"byteLength":1152,"target":34962,"byteStride":12},{"buffer":0,"byteOffset":104204,"byteLength":768,"target":34962,"byteStride":8},{"buffer":0,"byteOffset":104972,"byteLength":288,"target":34963},{"buffer":0,"byteOffset":105260,"byteLength":3168,"target":34962,"byteStride":12},{"buffer":0,"byteOffset":108428,"byteLength":3168,"target":34962,"byteStride":12},{"buffer":0,"byteOffset":111596,"byteLength":2112,"target":34962,"byteStride":8},{"buffer":0,"byteOffset":113708,"byteLength":720,"target":34963},{"buffer":0,"byteOffset":114428,"byteLength":3168,"target":34962,"byteStride":12},{"buffer":0,"byteOffset":117596,"byteLength":3168,"target":34962,"byteStride":12},{"buffer":0,"byteOffset":120764,"byteLength":2112,"target":34962,"byteStride":8},{"buffer":0,"byteOffset":122876,"byteLength":720,"target":34963}],"buffers":[{"byteLength":123596,"uri":"data:application/octet-stream;base64,"}],"accessors":[{"bufferView":0,"componentType":5126,"count":676,"max":[0.4248356223106384,0.5262625217437744,0.22888313233852386],"min":[-1.142009973526001,-0.01771874912083149,-0.10395749658346176],"type":"VEC3"},{"bufferView":1,"componentType":5126,"count":676,"max":[0.9982819557189941,0.9927173256874084,0.9990927577018738],"min":[-0.8628842830657959,-0.9906845092773438,-0.9988648891448975],"type":"VEC3"},{"bufferView":2,"componentType":5126,"count":676,"max":[0.8317312598228455,0.7706637382507324],"min":[0,0],"type":"VEC2"},{"bufferView":3,"componentType":5123,"count":1008,"max":[675],"min":[0],"type":"SCALAR"},{"bufferView":4,"componentType":5126,"count":649,"max":[0.0546875,0.12740688025951385,0.1875],"min":[-0.30046001076698303,-0.34702062606811523,-0.1875],"type":"VEC3"},{"bufferView":5,"componentType":5126,"count":649,"max":[0.9969058036804199,0.9896432161331177,0.9379162192344666],"min":[-0.9974507093429565,-1,-0.9665530323982239],"type":"VEC3"},{"bufferView":6,"componentType":5126,"count":649,"max":[0.71875,0.726996898651123],"min":[0,0],"type":"VEC2"},{"bufferView":7,"componentType":5123,"count":915,"max":[648],"min":[0],"type":"SCALAR"},{"bufferView":8,"componentType":5126,"count":150,"max":[0.125,0.1875,0.0625],"min":[-0.125,-0.1875,-0.09375],"type":"VEC3"},{"bufferView":9,"componentType":5126,"count":150,"max":[0.9701424837112427,1,1],"min":[-0.9701424837112427,-1,-0.9693508744239807],"type":"VEC3"},{"bufferView":10,"componentType":5126,"count":150,"max":[0.5,0.5625],"min":[0.00520937517285347,0],"type":"VEC2"},{"bufferView":11,"componentType":5123,"count":222,"max":[149],"min":[0],"type":"SCALAR"},{"bufferView":12,"componentType":5126,"count":104,"max":[0.09802437573671341,0.03125,0.03125],"min":[-0.07290062308311462,-0.154641255736351,-0.03125],"type":"VEC3"},{"bufferView":13,"componentType":5126,"count":104,"max":[1,1,1],"min":[-1,-0.9974599480628967,-1],"type":"VEC3"},{"bufferView":14,"componentType":5126,"count":104,"max":[0.5,0.5190343856811523],"min":[0.00411750003695488,0],"type":"VEC2"},{"bufferView":15,"componentType":5123,"count":156,"max":[103],"min":[0],"type":"SCALAR"},{"bufferView":16,"componentType":5126,"count":104,"max":[0.09802437573671341,0.03125,0.03125],"min":[-0.07290062308311462,-0.154641255736351,-0.03125],"type":"VEC3"},{"bufferView":17,"componentType":5126,"count":104,"max":[1,1,1],"min":[-1,-0.9974599480628967,-1],"type":"VEC3"},{"bufferView":18,"componentType":5126,"count":104,"max":[0.0625,0.0625],"min":[0,0],"type":"VEC2"},{"bufferView":19,"componentType":5123,"count":156,"max":[103],"min":[0],"type":"SCALAR"},{"bufferView":20,"componentType":5126,"count":150,"max":[0.125,0.1875,0.09375],"min":[-0.125,-0.1875,-0.0625],"type":"VEC3"},{"bufferView":21,"componentType":5126,"count":150,"max":[0.9701424837112427,1,0.9693508744239807],"min":[-0.9701424837112427,-1,-1],"type":"VEC3"},{"bufferView":22,"componentType":5126,"count":150,"max":[0.0625,0.0625],"min":[0,0],"type":"VEC2"},{"bufferView":23,"componentType":5123,"count":222,"max":[149],"min":[0],"type":"SCALAR"},{"bufferView":24,"componentType":5126,"count":161,"max":[0.125,0.25,0.09375],"min":[-0.2959812581539154,-0.1875,-0.0863843783736229],"type":"VEC3"},{"bufferView":25,"componentType":5126,"count":161,"max":[1,1,0.9965457320213318],"min":[-0.9965457320213318,-1,-1],"type":"VEC3"},{"bufferView":26,"componentType":5126,"count":161,"max":[0.28125,0.23040622472763062],"min":[0,0],"type":"VEC2"},{"bufferView":27,"componentType":5123,"count":231,"max":[160],"min":[0],"type":"SCALAR"},{"bufferView":28,"componentType":5126,"count":104,"max":[0.098192498087883,0.03125,0.03125],"min":[-0.07383249700069427,-0.154641255736351,-0.03125],"type":"VEC3"},{"bufferView":29,"componentType":5126,"count":104,"max":[1,1,1],"min":[-1,-0.9958621859550476,-1],"type":"VEC3"},{"bufferView":30,"componentType":5126,"count":104,"max":[0.1875,0.13633126020431519],"min":[0,0],"type":"VEC2"},{"bufferView":31,"componentType":5123,"count":156,"max":[103],"min":[0],"type":"SCALAR"},{"bufferView":32,"componentType":5126,"count":161,"max":[0.125,0.25,0.0863843783736229],"min":[-0.2959812581539154,-0.1875,-0.09375],"type":"VEC3"},{"bufferView":33,"componentType":5126,"count":161,"max":[1,1,1],"min":[-0.9965457320213318,-1,-0.9965457320213318],"type":"VEC3"},{"bufferView":34,"componentType":5126,"count":161,"max":[0.28125,0.23040622472763062],"min":[0,0],"type":"VEC2"},{"bufferView":35,"componentType":5123,"count":231,"max":[160],"min":[0],"type":"SCALAR"},{"bufferView":36,"componentType":5126,"count":104,"max":[0.098192498087883,0.03125,0.03125],"min":[-0.07383249700069427,-0.154641255736351,-0.03125],"type":"VEC3"},{"bufferView":37,"componentType":5126,"count":104,"max":[1,1,1],"min":[-1,-0.9958621859550476,-1],"type":"VEC3"},{"bufferView":38,"componentType":5126,"count":104,"max":[0.0625,0.0625],"min":[0,0],"type":"VEC2"},{"bufferView":39,"componentType":5123,"count":156,"max":[103],"min":[0],"type":"SCALAR"},{"bufferView":40,"componentType":5126,"count":188,"max":[0.09885624796152115,0.06083500012755394,0.015625],"min":[-0.13955561816692352,0.029907500371336937,-0.015625],"type":"VEC3"},{"bufferView":41,"componentType":5126,"count":188,"max":[0.3291570246219635,1,1],"min":[-1,-1,-1],"type":"VEC3"},{"bufferView":42,"componentType":5126,"count":188,"max":[0.5569462776184082,0.4375],"min":[0.004109375178813934,0],"type":"VEC2"},{"bufferView":43,"componentType":5123,"count":276,"max":[187],"min":[0],"type":"SCALAR"},{"bufferView":44,"componentType":5126,"count":96,"max":[-0.04374999925494194,0.05937499925494194,-0.04374999925494194],"min":[-0.05000000074505806,0.03437500074505806,-0.05000000074505806],"type":"VEC3"},{"bufferView":45,"componentType":5126,"count":96,"max":[1,0.18428631126880646,1],"min":[-1,-1,-1],"type":"VEC3"},{"bufferView":46,"componentType":5126,"count":96,"max":[0.03125,0.03125],"min":[0,0],"type":"VEC2"},{"bufferView":47,"componentType":5123,"count":144,"max":[95],"min":[0],"type":"SCALAR"},{"bufferView":48,"componentType":5126,"count":96,"max":[-0.04374999925494194,0.05937499925494194,0.05000000074505806],"min":[-0.05000000074505806,0.03437500074505806,0.04374999925494194],"type":"VEC3"},{"bufferView":49,"componentType":5126,"count":96,"max":[1,0.18428631126880646,1],"min":[-1,-1,-1],"type":"VEC3"},{"bufferView":50,"componentType":5126,"count":96,"max":[0.984375,0.109375],"min":[0.015625,0.015625],"type":"VEC2"},{"bufferView":51,"componentType":5123,"count":144,"max":[95],"min":[0],"type":"SCALAR"},{"bufferView":52,"componentType":5126,"count":78,"max":[-0.08437500149011612,0.01406249962747097,0.012500000186264515],"min":[-0.09062500298023224,-0.0031250000465661287,-0.012500000186264515],"type":"VEC3"},{"bufferView":53,"componentType":5126,"count":78,"max":[0.9838699102401733,1,1],"min":[-0.9838699102401733,-0.24253562092781067,-1],"type":"VEC3"},{"bufferView":54,"componentType":5126,"count":78,"max":[0.03125,0.03125],"min":[0,0],"type":"VEC2"},{"bufferView":55,"componentType":5123,"count":114,"max":[77],"min":[0],"type":"SCALAR"},{"bufferView":56,"componentType":5126,"count":96,"max":[-0.04218750074505806,0.0625,-0.04374999925494194],"min":[-0.05156249925494194,0.03125,-0.05000000074505806],"type":"VEC3"},{"bufferView":57,"componentType":5126,"count":96,"max":[1,0.14834190905094147,1],"min":[-1,-1,-1],"type":"VEC3"},{"bufferView":58,"componentType":5126,"count":96,"max":[0.03125,0.03125],"min":[0,0],"type":"VEC2"},{"bufferView":59,"componentType":5123,"count":144,"max":[95],"min":[0],"type":"SCALAR"},{"bufferView":60,"componentType":5126,"count":96,"max":[-0.04218750074505806,0.0625,0.05000000074505806],"min":[-0.05156249925494194,0.03125,0.04374999925494194],"type":"VEC3"},{"bufferView":61,"componentType":5126,"count":96,"max":[1,0.14834190905094147,1],"min":[-1,-1,-1],"type":"VEC3"},{"bufferView":62,"componentType":5126,"count":96,"max":[0.03125,0.03125],"min":[0,0],"type":"VEC2"},{"bufferView":63,"componentType":5123,"count":144,"max":[95],"min":[0],"type":"SCALAR"},{"bufferView":64,"componentType":5126,"count":264,"max":[0.012500000186264515,0.012500000186264515,0.012500000186264515],"min":[-0.012500000186264515,-0.012500000186264515,-0.012500000186264515],"type":"VEC3"},{"bufferView":65,"componentType":5126,"count":264,"max":[0.9659377336502075,0.9659391045570374,0.9659377336502075],"min":[-0.9659377336502075,-0.9659391045570374,-0.9659377336502075],"type":"VEC3"},{"bufferView":66,"componentType":5126,"count":264,"max":[0.2937981188297272,0.3125],"min":[0.01871812529861927,0],"type":"VEC2"},{"bufferView":67,"componentType":5123,"count":360,"max":[263],"min":[0],"type":"SCALAR"},{"bufferView":68,"componentType":5126,"count":264,"max":[0.012500000186264515,0.012500000186264515,0.012500000186264515],"min":[-0.012500000186264515,-0.012500000186264515,-0.012500000186264515],"type":"VEC3"},{"bufferView":69,"componentType":5126,"count":264,"max":[0.9659377336502075,0.9659391045570374,0.9659377336502075],"min":[-0.9659377336502075,-0.9659391045570374,-0.9659377336502075],"type":"VEC3"},{"bufferView":70,"componentType":5126,"count":264,"max":[0.2937981188297272,0.3125],"min":[0.01871812529861927,0],"type":"VEC2"},{"bufferView":71,"componentType":5123,"count":360,"max":[263],"min":[0],"type":"SCALAR"}],"materials":[{"pbrMetallicRoughness":{"metallicFactor":0,"roughnessFactor":1,"baseColorTexture":{"index":0}},"alphaMode":"MASK","alphaCutoff":0.05,"doubleSided":true},{"pbrMetallicRoughness":{"metallicFactor":0,"roughnessFactor":1,"baseColorTexture":{"index":1}},"alphaMode":"MASK","alphaCutoff":0.05,"doubleSided":true},{"pbrMetallicRoughness":{"metallicFactor":0,"roughnessFactor":1,"baseColorTexture":{"index":2}},"alphaMode":"MASK","alphaCutoff":0.05,"doubleSided":true},{"pbrMetallicRoughness":{"metallicFactor":0,"roughnessFactor":1,"baseColorTexture":{"index":3}},"alphaMode":"MASK","alphaCutoff":0.05,"doubleSided":true},{"pbrMetallicRoughness":{"metallicFactor":0,"roughnessFactor":1,"baseColorTexture":{"index":4}},"alphaMode":"MASK","alphaCutoff":0.05,"doubleSided":true},{"pbrMetallicRoughness":{"metallicFactor":0,"roughnessFactor":1,"baseColorTexture":{"index":5}},"alphaMode":"MASK","alphaCutoff":0.05,"doubleSided":true},{"pbrMetallicRoughness":{"metallicFactor":0,"roughnessFactor":1,"baseColorTexture":{"index":6}},"alphaMode":"MASK","alphaCutoff":0.05,"doubleSided":true},{"pbrMetallicRoughness":{"metallicFactor":0,"roughnessFactor":1,"baseColorTexture":{"index":7}},"alphaMode":"MASK","alphaCutoff":0.05,"doubleSided":true}],"textures":[{"sampler":0,"source":0,"name":"wolf_lizard_body.png"},{"sampler":1,"source":1,"name":"lizard_head.png"},{"sampler":2,"source":2,"name":"bottom_leg.png"},{"sampler":3,"source":3,"name":"hind_leg.png"},{"sampler":4,"source":4,"name":"lizard_tongue.png"},{"sampler":5,"source":5,"name":"teeth.png"},{"sampler":6,"source":6,"name":"lizard_eyes.png"},{"sampler":7,"source":7,"name":"lizard_eye2.png"}],"samplers":[{"magFilter":9728,"minFilter":9728,"wrapS":33071,"wrapT":33071},{"magFilter":9728,"minFilter":9728,"wrapS":33071,"wrapT":33071},{"magFilter":9728,"minFilter":9728,"wrapS":33071,"wrapT":33071},{"magFilter":9728,"minFilter":9728,"wrapS":33071,"wrapT":33071},{"magFilter":9728,"minFilter":9728,"wrapS":33071,"wrapT":33071},{"magFilter":9728,"minFilter":9728,"wrapS":33071,"wrapT":33071},{"magFilter":9728,"minFilter":9728,"wrapS":33071,"wrapT":33071},{"magFilter":9728,"minFilter":9728,"wrapS":33071,"wrapT":33071}],"images":[{"mimeType":"image/png","uri":"data:image/png;base64,"},{"mimeType":"image/png","uri":"data:image/png;base64,"},{"mimeType":"image/png","uri":"data:image/png;base64,"},{"mimeType":"image/png","uri":"data:image/png;base64,"},{"mimeType":"image/png","uri":"data:image/png;base64,"},{"mimeType":"image/png","uri":"data:image/png;base64,"},{"mimeType":"image/png","uri":"data:image/png;base64,"},{"mimeType":"image/png","uri":"data:image/png;base64,"}],"meshes":[{"primitives":[{"mode":4,"attributes":{"POSITION":0,"NORMAL":1,"TEXCOORD_0":2},"indices":3,"material":0}]},{"primitives":[{"mode":4,"attributes":{"POSITION":4,"NORMAL":5,"TEXCOORD_0":6},"indices":7,"material":1}]},{"primitives":[{"mode":4,"attributes":{"POSITION":8,"NORMAL":9,"TEXCOORD_0":10},"indices":11,"material":2}]},{"primitives":[{"mode":4,"attributes":{"POSITION":12,"NORMAL":13,"TEXCOORD_0":14},"indices":15,"material":2}]},{"primitives":[{"mode":4,"attributes":{"POSITION":16,"NORMAL":17,"TEXCOORD_0":18},"indices":19,"material":2}]},{"primitives":[{"mode":4,"attributes":{"POSITION":20,"NORMAL":21,"TEXCOORD_0":22},"indices":23,"material":2}]},{"primitives":[{"mode":4,"attributes":{"POSITION":24,"NORMAL":25,"TEXCOORD_0":26},"indices":27,"material":3}]},{"primitives":[{"mode":4,"attributes":{"POSITION":28,"NORMAL":29,"TEXCOORD_0":30},"indices":31,"material":3}]},{"primitives":[{"mode":4,"attributes":{"POSITION":32,"NORMAL":33,"TEXCOORD_0":34},"indices":35,"material":3}]},{"primitives":[{"mode":4,"attributes":{"POSITION":36,"NORMAL":37,"TEXCOORD_0":38},"indices":39,"material":2}]},{"primitives":[{"mode":4,"attributes":{"POSITION":40,"NORMAL":41,"TEXCOORD_0":42},"indices":43,"material":4}]},{"primitives":[{"mode":4,"attributes":{"POSITION":44,"NORMAL":45,"TEXCOORD_0":46},"indices":47,"material":5}]},{"primitives":[{"mode":4,"attributes":{"POSITION":48,"NORMAL":49,"TEXCOORD_0":50},"indices":51,"material":5}]},{"primitives":[{"mode":4,"attributes":{"POSITION":52,"NORMAL":53,"TEXCOORD_0":54},"indices":55,"material":5}]},{"primitives":[{"mode":4,"attributes":{"POSITION":56,"NORMAL":57,"TEXCOORD_0":58},"indices":59,"material":5}]},{"primitives":[{"mode":4,"attributes":{"POSITION":60,"NORMAL":61,"TEXCOORD_0":62},"indices":63,"material":5}]},{"primitives":[{"mode":4,"attributes":{"POSITION":64,"NORMAL":65,"TEXCOORD_0":66},"indices":67,"material":6}]},{"primitives":[{"mode":4,"attributes":{"POSITION":68,"NORMAL":69,"TEXCOORD_0":70},"indices":71,"material":7}]}]}