{"asset":{"version":"2.0","generator":"Blockbench 5.0.4 glTF exporter"},"scenes":[{"nodes":[1,2,6,10],"name":"blockbench_export"}],"scene":0,"nodes":[{"name":"CACTUS_SCORPION"},{"translation":[-2.6875,1.125,2.125],"name":"CACTUS_SCORPION","children":[0],"skin":0},{"translation":[0,-2.875,0],"name":"plane","mesh":0},{"rotation":[0.10760101015754076,-0.013696887883896782,0.02218144356421757,0.9938523036330801],"translation":[0,2.125,0],"name":"right_f_leg3"},{"rotation":[0.864943653162608,0.03483241530308144,-0.02665974313050974,0.49994843513515563],"translation":[0,1.8125,0],"name":"right_f_leg2","children":[3]},{"rotation":[0.4614580947066333,0.04618939699192064,-0.04782679011554929,0.8846669229616816],"translation":[-3.9375,0.5,1.875],"name":"right_f_leg","children":[4]},{"name":"right_f_leg","children":[5],"skin":1},{"rotation":[0,0,0.06540312923014306,0.9978589232386035],"translation":[0,2.3125,0],"name":"left_f_leg3"},{"rotation":[0.8418085533196548,0.08147773375551129,0.18050861477785002,0.5021318337358406],"translation":[-0.11410351004242966,1.4242172765609733,0.013529548548188934],"name":"left_f_leg2","children":[7]},{"rotation":[-0.1480300460480803,-0.8514141176837653,0.4811528243484539,-0.14721774790182257],"translation":[-3.9375,0.75,-1.375],"name":"left_f_leg","children":[8]},{"name":"left_f_leg","children":[9],"skin":2}],"bufferViews":[{"buffer":0,"byteOffset":0,"byteLength":48,"target":34962,"byteStride":12},{"buffer":0,"byteOffset":48,"byteLength":48,"target":34962,"byteStride":12},{"buffer":0,"byteOffset":96,"byteLength":32,"target":34962,"byteStride":8},{"buffer":0,"byteOffset":128,"byteLength":12,"target":34963},{"buffer":0,"byteOffset":140,"byteLength":64},{"buffer":0,"byteOffset":204,"byteLength":192},{"buffer":0,"byteOffset":396,"byteLength":192}],"buffers":[{"byteLength":588,"uri":"data:application/octet-stream;base64,"}],"accessors":[{"bufferView":0,"componentType":5126,"count":4,"max":[7.8125,0,13.1875],"min":[-7.8125,0,-13.1875],"type":"VEC3"},{"bufferView":1,"componentType":5126,"count":4,"max":[0,1,0],"min":[0,1,0],"type":"VEC3"},{"bufferView":2,"componentType":5126,"count":4,"max":[0.078125,0.078125],"min":[0,0],"type":"VEC2"},{"bufferView":3,"componentType":5123,"count":6,"max":[3],"min":[0],"type":"SCALAR"},{"bufferView":4,"componentType":5126,"count":1,"max":[1,0,0,0,0,1,0,0,0,0,1,0,0,0,0,1],"min":[1,0,0,0,0,1,0,0,0,0,1,0,0,0,0,1],"type":"MAT4"},{"bufferView":5,"componentType":5126,"count":3,"max":[0.9911582469940186,0.12725050747394562,0.037584345787763596,0,0.04375382885336876,0.5695380568504333,0.13072793185710907,0,-0.12586458027362823,0.812055230140686,0.5698459148406982,0,4.159677982330322,1.4735442399978638,2.91050124168396,1],"min":[0.985019862651825,-0.02248922549188137,-0.17096811532974243,0,-0.04199261590838432,-0.9955226182937622,-0.8208916187286377,0,-0.17244088649749756,-0.12877900898456573,-0.9865685105323792,0,4.080166816711426,-1.306323766708374,-0.5100269913673401,1],"type":"MAT4"},{"bufferView":6,"componentType":5126,"count":3,"max":[-0.6917967200279236,0.3937382102012634,0.1082363873720169,0,0.11040127277374268,0.49315813183784485,0.011709991842508316,0,-0.3931366801261902,0.05393846705555916,0.6938820481300354,0,-4.114290714263916,1.1465333700180054,0.3946082592010498,1],"min":[-0.9128280878067017,-0.055015869438648224,-0.7199934124946594,0,-0.06364328414201736,-0.9979040026664734,-0.8629059195518494,0,-0.7189629077911377,-0.7757353186607361,-0.4936378002166748,0,-4.231281757354736,-0.6189689636230469,-0.6776931285858154,1],"type":"MAT4"}],"materials":[{"pbrMetallicRoughness":{"metallicFactor":0,"roughnessFactor":1},"alphaMode":"MASK","alphaCutoff":0.05,"doubleSided":true}],"meshes":[{"primitives":[{"mode":4,"attributes":{"POSITION":0,"NORMAL":1,"TEXCOORD_0":2},"indices":3,"material":0}]}],"skins":[{"inverseBindMatrices":4,"joints":[0],"skeleton":0},{"inverseBindMatrices":5,"joints":[5,4,3],"skeleton":5},{"inverseBindMatrices":6,"joints":[9,8,7],"skeleton":9}],"animations":[]}