{"asset":{"version":"2.0","generator":"Blockbench 5.0.4 glTF exporter"},"scenes":[{"nodes":[41,42],"name":"blockbench_export"}],"scene":0,"nodes":[{"rotation":[0,-0.8767267557075077,0,0.48098876891938774],"name":"RIGHT_MIDDLE_THIGH","mesh":0},{"rotation":[0,0.5187732581605214,0,0.8549118706729466],"translation":[0.625,-3.4375,0.6875],"name":"LEG","mesh":1},{"translation":[-1.0625,0,0],"name":"LEFT_FRONT_LEG","children":[0,1]},{"rotation":[0.16463102574755747,0.47744388015163286,-0.8596606524360297,-0.0769904495396668],"name":"LEFT_MIDDLE_THIGH","mesh":2},{"rotation":[0,0.984807753012208,0,0.17364817766693041],"translation":[-0.0625,-3.6875,1.125],"name":"LEG","mesh":3},{"translation":[-2.3125,0.6875,1.125],"name":"LEFT_MIDDLE_LEG","children":[3,4]},{"rotation":[0,0.9469301294951057,0,0.3214394653031615],"name":"RIGHT_MIDDLE_THIGH","mesh":4},{"rotation":[-0.00787602492399815,-0.9531562533935464,-0.01680917228611776,-0.3019082254183044],"translation":[-0.1875,-3.6875,1.125],"name":"LEG","mesh":5},{"translation":[-4,1.0625,0.6875],"name":"LEFT_BACK_LEG","children":[6,7]},{"translation":[-0.3125,3.25,0.75],"name":"RIGHT_MIDDLE_THIGH","mesh":6},{"rotation":[0,0.8549118706729465,0,0.5187732581605216],"name":"LEG","mesh":7},{"translation":[-0.75,-3.4375,-4.5],"name":"RIGHT_FRONT_LEG","children":[9,10]},{"translation":[-0.0625,-3.5625,-1.125],"name":"LEG","mesh":8},{"rotation":[0.8516015815495961,-0.11432424473947214,-0.20838558125656972,0.4672046263590906],"name":"RIGHT_MIDDLE_THIGH","mesh":9},{"translation":[-2.4375,0.6875,-4.9375],"name":"RIGHT_MIDDLE_LEG","children":[12,13]},{"rotation":[-0.06440950873710426,0.1732763835890688,-0.011357134204529086,0.9826992040177904],"translation":[-0.625,-3.6875,-1.125],"name":"LEG","mesh":10},{"name":"RIGHT_MIDDLE_THIGH","mesh":11},{"translation":[-4,1.0625,-4.4375],"name":"RIGHT_BACK_LEG","children":[15,16]},{"name":"LEGS","children":[2,5,8,11,14,17]},{"translation":[4,-1.375,-1.5],"name":"EYES"},{"rotation":[-0.10308932390129828,0.3195289378394012,-0.0349941100416417,0.9413018970782917],"translation":[1.375,-2.0625,1.5],"name":"RIGHT_ARM","mesh":12},{"translation":[1.375,-2.0625,-5.4375],"name":"LEFT_ARM","mesh":13},{"rotation":[0,0,0.13052619222005157,0.9914448613738104],"translation":[0.008158125,1.061965,0],"name":"head4"},{"rotation":[0,0,0.06540312923014306,0.9978589232386035],"translation":[0,1.0625,0],"name":"head3","children":[22]},{"rotation":[0,0,-0.6087614290087207,0.7933533402912352],"translation":[0,0.5,0],"name":"head2","children":[23]},{"rotation":[0,0,-0.48098876891938763,0.8767267557075077],"translation":[1.9375,-1,-1.9375],"name":"head","children":[24]},{"name":"head","children":[25],"skin":0},{"rotation":[0,0,-0.23768589232617307,0.9713420698132614],"translation":[0.098318125,2.361218125,0.0625],"name":"body3"},{"rotation":[0,0,-0.1521233861899167,0.9883615104677607],"translation":[0.5528275,4.26171125,0.0625],"name":"body2","children":[27]},{"rotation":[0,0,0.5372996083468239,0.8433914458128857],"translation":[-0.6875,-1.875,-1.875],"name":"body","children":[28]},{"name":"body","children":[29],"skin":1},{"rotation":[0,0,-0.19509032201612825,0.9807852804032304],"translation":[-0.125,0.5,0],"name":"tail9"},{"rotation":[0,0,-0.13052619222005157,0.9914448613738104],"translation":[0,1.625,0],"name":"tail8","children":[31]},{"rotation":[0,0,-0.17364817766693033,0.984807753012208],"translation":[0,1.5,0],"name":"tail7","children":[32]},{"rotation":[0,0,-0.25881904510252074,0.9659258262890683],"translation":[0,2.3125,0],"name":"tail6","children":[33]},{"rotation":[0,0,-0.25881904510252074,0.9659258262890683],"translation":[0,2.3125,0],"name":"tail5","children":[34]},{"rotation":[0,0,-0.25881904510252074,0.9659258262890683],"translation":[0,2.125,0],"name":"tail4","children":[35]},{"rotation":[0,0,-0.043619387365336,0.9990482215818578],"translation":[0,1.75,0],"name":"tail3","children":[36]},{"rotation":[0,0,-0.08715574274765817,0.9961946980917455],"translation":[0,1.5,0],"name":"tail2","children":[37]},{"rotation":[0,0,-0.08715574274765817,0.9961946980917455],"translation":[-6.1875,3.875,-1.8125],"name":"tail","children":[38]},{"name":"tail","children":[39],"skin":2},{"translation":[-2.6875,1.125,2.125],"name":"CACTUS_SCORPION","children":[18,19,20,21,26,30,40]},{"translation":[0,-2.875,0],"name":"plane","mesh":14}],"bufferViews":[{"buffer":0,"byteOffset":0,"byteLength":1344,"target":34962,"byteStride":12},{"buffer":0,"byteOffset":1344,"byteLength":1344,"target":34962,"byteStride":12},{"buffer":0,"byteOffset":2688,"byteLength":896,"target":34962,"byteStride":8},{"buffer":0,"byteOffset":3584,"byteLength":312,"target":34963},{"buffer":0,"byteOffset":3896,"byteLength":2520,"target":34962,"byteStride":12},{"buffer":0,"byteOffset":6416,"byteLength":2520,"target":34962,"byteStride":12},{"buffer":0,"byteOffset":8936,"byteLength":1680,"target":34962,"byteStride":8},{"buffer":0,"byteOffset":10616,"byteLength":576,"target":34963},{"buffer":0,"byteOffset":11192,"byteLength":1344,"target":34962,"byteStride":12},{"buffer":0,"byteOffset":12536,"byteLength":1344,"target":34962,"byteStride":12},{"buffer":0,"byteOffset":13880,"byteLength":896,"target":34962,"byteStride":8},{"buffer":0,"byteOffset":14776,"byteLength":312,"target":34963},{"buffer":0,"byteOffset":15088,"byteLength":2472,"target":34962,"byteStride":12},{"buffer":0,"byteOffset":17560,"byteLength":2472,"target":34962,"byteStride":12},{"buffer":0,"byteOffset":20032,"byteLength":1648,"target":34962,"byteStride":8},{"buffer":0,"byteOffset":21680,"byteLength":552,"target":34963},{"buffer":0,"byteOffset":22232,"byteLength":1344,"target":34962,"byteStride":12},{"buffer":0,"byteOffset":23576,"byteLength":1344,"target":34962,"byteStride":12},{"buffer":0,"byteOffset":24920,"byteLength":896,"target":34962,"byteStride":8},{"buffer":0,"byteOffset":25816,"byteLength":312,"target":34963},{"buffer":0,"byteOffset":26128,"byteLength":2520,"target":34962,"byteStride":12},{"buffer":0,"byteOffset":28648,"byteLength":2520,"target":34962,"byteStride":12},{"buffer":0,"byteOffset":31168,"byteLength":1680,"target":34962,"byteStride":8},{"buffer":0,"byteOffset":32848,"byteLength":576,"target":34963},{"buffer":0,"byteOffset":33424,"byteLength":1344,"target":34962,"byteStride":12},{"buffer":0,"byteOffset":34768,"byteLength":1344,"target":34962,"byteStride":12},{"buffer":0,"byteOffset":36112,"byteLength":896,"target":34962,"byteStride":8},{"buffer":0,"byteOffset":37008,"byteLength":312,"target":34963},{"buffer":0,"byteOffset":37320,"byteLength":2496,"target":34962,"byteStride":12},{"buffer":0,"byteOffset":39816,"byteLength":2496,"target":34962,"byteStride":12},{"buffer":0,"byteOffset":42312,"byteLength":1664,"target":34962,"byteStride":8},{"buffer":0,"byteOffset":43976,"byteLength":576,"target":34963},{"buffer":0,"byteOffset":44552,"byteLength":2424,"target":34962,"byteStride":12},{"buffer":0,"byteOffset":46976,"byteLength":2424,"target":34962,"byteStride":12},{"buffer":0,"byteOffset":49400,"byteLength":1616,"target":34962,"byteStride":8},{"buffer":0,"byteOffset":51016,"byteLength":552,"target":34963},{"buffer":0,"byteOffset":51568,"byteLength":1344,"target":34962,"byteStride":12},{"buffer":0,"byteOffset":52912,"byteLength":1344,"target":34962,"byteStride":12},{"buffer":0,"byteOffset":54256,"byteLength":896,"target":34962,"byteStride":8},{"buffer":0,"byteOffset":55152,"byteLength":312,"target":34963},{"buffer":0,"byteOffset":55464,"byteLength":2400,"target":34962,"byteStride":12},{"buffer":0,"byteOffset":57864,"byteLength":2400,"target":34962,"byteStride":12},{"buffer":0,"byteOffset":60264,"byteLength":1600,"target":34962,"byteStride":8},{"buffer":0,"byteOffset":61864,"byteLength":540,"target":34963},{"buffer":0,"byteOffset":62404,"byteLength":1344,"target":34962,"byteStride":12},{"buffer":0,"byteOffset":63748,"byteLength":1344,"target":34962,"byteStride":12},{"buffer":0,"byteOffset":65092,"byteLength":896,"target":34962,"byteStride":8},{"buffer":0,"byteOffset":65988,"byteLength":312,"target":34963},{"buffer":0,"byteOffset":66300,"byteLength":5592,"target":34962,"byteStride":12},{"buffer":0,"byteOffset":71892,"byteLength":5592,"target":34962,"byteStride":12},{"buffer":0,"byteOffset":77484,"byteLength":3728,"target":34962,"byteStride":8},{"buffer":0,"byteOffset":81212,"byteLength":1296,"target":34963},{"buffer":0,"byteOffset":82508,"byteLength":5592,"target":34962,"byteStride":12},{"buffer":0,"byteOffset":88100,"byteLength":5592,"target":34962,"byteStride":12},{"buffer":0,"byteOffset":93692,"byteLength":3728,"target":34962,"byteStride":8},{"buffer":0,"byteOffset":97420,"byteLength":1296,"target":34963},{"buffer":0,"byteOffset":98716,"byteLength":48,"target":34962,"byteStride":12},{"buffer":0,"byteOffset":98764,"byteLength":48,"target":34962,"byteStride":12},{"buffer":0,"byteOffset":98812,"byteLength":32,"target":34962,"byteStride":8},{"buffer":0,"byteOffset":98844,"byteLength":12,"target":34963},{"buffer":0,"byteOffset":98856,"byteLength":256},{"buffer":0,"byteOffset":99112,"byteLength":192},{"buffer":0,"byteOffset":99304,"byteLength":576},{"buffer":0,"byteOffset":99880,"byteLength":4},{"buffer":0,"byteOffset":99884,"byteLength":16},{"buffer":0,"byteOffset":99900,"byteLength":8},{"buffer":0,"byteOffset":99908,"byteLength":32},{"buffer":0,"byteOffset":99940,"byteLength":8},{"buffer":0,"byteOffset":99948,"byteLength":32}],"buffers":[{"byteLength":99980,"uri":"data:application/octet-stream;base64,"}],"accessors":[{"bufferView":0,"componentType":5126,"count":112,"max":[0.5936706066131592,0.7605100274085999,1.3150087594985962],"min":[-0.8915424942970276,-1.048884391784668,-0.9305306077003479],"type":"VEC3"},{"bufferView":1,"componentType":5126,"count":112,"max":[0.9519681930541992,0.8854503631591797,0.7707820534706116],"min":[-0.9501951336860657,-0.8684113621711731,-0.7961726784706116],"type":"VEC3"},{"bufferView":2,"componentType":5126,"count":112,"max":[0.6000000238418579,0.5303312540054321],"min":[0,0],"type":"VEC2"},{"bufferView":3,"componentType":5123,"count":156,"max":[111],"min":[0],"type":"SCALAR"},{"bufferView":4,"componentType":5126,"count":210,"max":[0.21623125672340393,4.003291130065918,0.3836449980735779],"min":[-0.40180251002311707,-0.8850150108337402,-0.28782251477241516],"type":"VEC3"},{"bufferView":5,"componentType":5126,"count":210,"max":[1,0.9806817770004272,0.965825617313385],"min":[-0.9626089930534363,-0.982862651348114,-0.9658247828483582],"type":"VEC3"},{"bufferView":6,"componentType":5126,"count":210,"max":[0.5303249955177307,0.5303312540054321],"min":[0,0],"type":"VEC2"},{"bufferView":7,"componentType":5123,"count":288,"max":[209],"min":[0],"type":"SCALAR"},{"bufferView":8,"componentType":5126,"count":112,"max":[0.4375,1.875,0.4375],"min":[-0.4375,-1.3115912675857544,-0.4375],"type":"VEC3"},{"bufferView":9,"componentType":5126,"count":112,"max":[1,1,1],"min":[-1,-1,-1],"type":"VEC3"},{"bufferView":10,"componentType":5126,"count":112,"max":[0.6000000238418579,0.5303312540054321],"min":[0,0],"type":"VEC2"},{"bufferView":11,"componentType":5123,"count":156,"max":[111],"min":[0],"type":"SCALAR"},{"bufferView":12,"componentType":5126,"count":206,"max":[0.4375,4.256801128387451,0.46915188431739807],"min":[-0.4375,-1.3240587711334229,-0.47178375720977783],"type":"VEC3"},{"bufferView":13,"componentType":5126,"count":206,"max":[1,0.991445004940033,0.9977076649665833],"min":[-1,-0.9914447665214539,-0.9971569776535034],"type":"VEC3"},{"bufferView":14,"componentType":5126,"count":206,"max":[0.5303249955177307,0.5303312540054321],"min":[0,0],"type":"VEC2"},{"bufferView":15,"componentType":5123,"count":276,"max":[205],"min":[0],"type":"SCALAR"},{"bufferView":16,"componentType":5126,"count":112,"max":[0.6897037625312805,1.2507493495941162,1.71272873878479],"min":[-0.6680381298065186,-1.635506272315979,-1.2962000370025635],"type":"VEC3"},{"bufferView":17,"componentType":5126,"count":112,"max":[0.9582787752151489,0.9186303019523621,0.790479302406311],"min":[-0.9582814574241638,-0.8441982865333557,-0.7729354500770569],"type":"VEC3"},{"bufferView":18,"componentType":5126,"count":112,"max":[0.6000000238418579,0.5303312540054321],"min":[0,0],"type":"VEC2"},{"bufferView":19,"componentType":5123,"count":156,"max":[111],"min":[0],"type":"SCALAR"},{"bufferView":20,"componentType":5126,"count":210,"max":[0.6201531291007996,4.6939287185668945,0.4476006329059601],"min":[-0.4036875069141388,-1.7026119232177734,-0.5456737279891968],"type":"VEC3"},{"bufferView":21,"componentType":5126,"count":210,"max":[0.9624004364013672,0.9914445877075195,0.9923985600471497],"min":[-0.9414069056510925,-0.9826585054397583,-0.9400889277458191],"type":"VEC3"},{"bufferView":22,"componentType":5126,"count":210,"max":[0.5303249955177307,0.5303312540054321],"min":[0,0],"type":"VEC2"},{"bufferView":23,"componentType":5123,"count":288,"max":[209],"min":[0],"type":"SCALAR"},{"bufferView":24,"componentType":5126,"count":112,"max":[0.5936706066131592,0.7605100274085999,1.3150087594985962],"min":[-0.8915424942970276,-1.048884391784668,-0.9305306077003479],"type":"VEC3"},{"bufferView":25,"componentType":5126,"count":112,"max":[0.9519681930541992,0.8854503631591797,0.7707820534706116],"min":[-0.9501951336860657,-0.8684113621711731,-0.7961726784706116],"type":"VEC3"},{"bufferView":26,"componentType":5126,"count":112,"max":[0.6000000238418579,0.5303312540054321],"min":[0,0],"type":"VEC2"},{"bufferView":27,"componentType":5123,"count":156,"max":[111],"min":[0],"type":"SCALAR"},{"bufferView":28,"componentType":5126,"count":208,"max":[0.3114406168460846,3.815791368484497,0.4141174852848053],"min":[-0.26805436611175537,-0.7600731253623962,-0.1919693797826767],"type":"VEC3"},{"bufferView":29,"componentType":5126,"count":208,"max":[0.9992519617080688,0.9839500784873962,0.9991930723190308],"min":[-0.9992520213127136,-0.9839506149291992,-0.9991929531097412],"type":"VEC3"},{"bufferView":30,"componentType":5126,"count":208,"max":[0.5303249955177307,0.5303312540054321],"min":[0,0],"type":"VEC2"},{"bufferView":31,"componentType":5123,"count":288,"max":[207],"min":[0],"type":"SCALAR"},{"bufferView":32,"componentType":5126,"count":202,"max":[0.4375,4.256801128387451,0.46915188431739807],"min":[-0.4375,-1.3044793605804443,-0.47178375720977783],"type":"VEC3"},{"bufferView":33,"componentType":5126,"count":202,"max":[1,0.991445004940033,0.9977076649665833],"min":[-1,-0.9914447665214539,-0.9971569776535034],"type":"VEC3"},{"bufferView":34,"componentType":5126,"count":202,"max":[0.5303249955177307,0.5303312540054321],"min":[0,0],"type":"VEC2"},{"bufferView":35,"componentType":5123,"count":276,"max":[201],"min":[0],"type":"SCALAR"},{"bufferView":36,"componentType":5126,"count":112,"max":[0.4375,1.875,0.4375],"min":[-0.4375,-1.3115912675857544,-0.4375],"type":"VEC3"},{"bufferView":37,"componentType":5126,"count":112,"max":[1,1,1],"min":[-1,-1,-1],"type":"VEC3"},{"bufferView":38,"componentType":5126,"count":112,"max":[0.6000000238418579,0.5303312540054321],"min":[0,0],"type":"VEC2"},{"bufferView":39,"componentType":5123,"count":156,"max":[111],"min":[0],"type":"SCALAR"},{"bufferView":40,"componentType":5126,"count":200,"max":[0.4375,4.65674352645874,0.9023568630218506],"min":[-0.4375,-1.6228612661361694,-0.375],"type":"VEC3"},{"bufferView":41,"componentType":5126,"count":200,"max":[1,1,1],"min":[-1,-0.9540795087814331,-1],"type":"VEC3"},{"bufferView":42,"componentType":5126,"count":200,"max":[0.5303249955177307,0.5303312540054321],"min":[0,0],"type":"VEC2"},{"bufferView":43,"componentType":5123,"count":270,"max":[199],"min":[0],"type":"SCALAR"},{"bufferView":44,"componentType":5126,"count":112,"max":[0.6897037625312805,1.2507493495941162,1.71272873878479],"min":[-0.6680381298065186,-1.635506272315979,-1.2962000370025635],"type":"VEC3"},{"bufferView":45,"componentType":5126,"count":112,"max":[0.9582787752151489,0.9186303019523621,0.790479302406311],"min":[-0.9582814574241638,-0.8441982865333557,-0.7729354500770569],"type":"VEC3"},{"bufferView":46,"componentType":5126,"count":112,"max":[0.6000000238418579,0.5303312540054321],"min":[0,0],"type":"VEC2"},{"bufferView":47,"componentType":5123,"count":156,"max":[111],"min":[0],"type":"SCALAR"},{"bufferView":48,"componentType":5126,"count":466,"max":[4.4398932456970215,1.1538556814193726,6.684754848480225],"min":[-0.625,-0.46478626132011414,-2.5556418895721436],"type":"VEC3"},{"bufferView":49,"componentType":5126,"count":466,"max":[1,1,1],"min":[-1,-1,-1],"type":"VEC3"},{"bufferView":50,"componentType":5126,"count":466,"max":[2.247318744659424,0.5303312540054321],"min":[0,0],"type":"VEC2"},{"bufferView":51,"componentType":5123,"count":648,"max":[465],"min":[0],"type":"SCALAR"},{"bufferView":52,"componentType":5126,"count":466,"max":[7.108608722686768,1.707944393157959,2.3822619915008545],"min":[-1.4981087446212769,-0.44744187593460083,-3.410280704498291],"type":"VEC3"},{"bufferView":53,"componentType":5126,"count":466,"max":[0.965925931930542,0.9891276955604553,0.9759781956672668],"min":[-0.9778876900672913,-0.9922652840614319,-0.9762022495269775],"type":"VEC3"},{"bufferView":54,"componentType":5126,"count":466,"max":[2.247318744659424,0.5303312540054321],"min":[0,0],"type":"VEC2"},{"bufferView":55,"componentType":5123,"count":648,"max":[465],"min":[0],"type":"SCALAR"},{"bufferView":56,"componentType":5126,"count":4,"max":[7.8125,0,13.1875],"min":[-7.8125,0,-13.1875],"type":"VEC3"},{"bufferView":57,"componentType":5126,"count":4,"max":[0,1,0],"min":[0,1,0],"type":"VEC3"},{"bufferView":58,"componentType":5126,"count":4,"max":[1.25,1.25],"min":[0,0],"type":"VEC2"},{"bufferView":59,"componentType":5123,"count":6,"max":[3],"min":[0],"type":"SCALAR"},{"bufferView":60,"componentType":5126,"count":4,"max":[0.537299633026123,0.9396926164627075,0,0,-0.7372773289680481,0.537299633026123,0,0,0,0,1,0,1.054641604423523,-1.0967713594436646,1.9375,1],"min":[-0.6755902171134949,0.7372773289680481,0,0,-0.9396926164627075,-0.6755902171134949,0,0,0,0,1,0,-1.8844094276428223,-4.472345352172852,1.9375,1],"type":"MAT4"},{"bufferView":61,"componentType":5126,"count":3,"max":[0.9396926164627075,-0.3420201539993286,0,0,0.9063078165054321,0.9396926164627075,0,0,0,0,1,0,4.912983417510986,0.1693226397037506,1.875,1],"min":[0.4226182699203491,-0.9063078165054321,0,0,0.3420201539993286,0.4226182699203491,0,0,0,0,1,0,1.9898771047592163,-4.017432689666748,1.75,1],"type":"MAT4"},{"bufferView":62,"componentType":5126,"count":9,"max":[0.9848077297210693,0.9961947202682495,0,0,-0.13052618503570557,0.9848077297210693,0,0,0,0,1,0,10.431012153625488,7.882201671600342,1.8125,1],"min":[-0.9914448857307434,0.13052618503570557,0,0,-0.9961947202682495,-0.9914448857307434,0,0,0,0,1,0,3.6947669982910156,-4.089221477508545,1.8125,1],"type":"MAT4"},{"bufferView":63,"componentType":5126,"count":1,"max":[0],"min":[0],"type":"SCALAR"},{"bufferView":64,"componentType":5126,"count":1,"max":[0,0,0.4617486000061035,0.8870108127593994],"min":[0,0,0.4617486000061035,0.8870108127593994],"type":"VEC4"},{"bufferView":65,"componentType":5126,"count":2,"max":[0.2916699945926666],"min":[0],"type":"SCALAR"},{"bufferView":66,"componentType":5126,"count":2,"max":[0.07013167440891266,0.11443580687046051,-0.4190027117729187,0.8985542058944702],"min":[0.06278163194656372,0.11008467525243759,-0.47687384486198425,0.8692262172698975],"type":"VEC4"},{"bufferView":67,"componentType":5126,"count":2,"max":[0.25],"min":[0.08332999795675278],"type":"SCALAR"},{"bufferView":68,"componentType":5126,"count":2,"max":[0.0875883474946022,0.019825860857963562,-0.023627541959285736,0.9956791400909424],"min":[0.08707278966903687,-0.0038016801699995995,-0.0434534028172493,0.9952465295791626],"type":"VEC4"}],"materials":[{"pbrMetallicRoughness":{"metallicFactor":0,"roughnessFactor":1},"alphaMode":"MASK","alphaCutoff":0.05,"doubleSided":true},{"pbrMetallicRoughness":{"metallicFactor":0,"roughnessFactor":1},"alphaMode":"MASK","alphaCutoff":0.05,"doubleSided":true},{"pbrMetallicRoughness":{"metallicFactor":0,"roughnessFactor":1},"alphaMode":"MASK","alphaCutoff":0.05,"doubleSided":true}],"meshes":[{"primitives":[{"mode":4,"attributes":{"POSITION":0,"NORMAL":1,"TEXCOORD_0":2},"indices":3,"material":0}]},{"primitives":[{"mode":4,"attributes":{"POSITION":4,"NORMAL":5,"TEXCOORD_0":6},"indices":7,"material":0}]},{"primitives":[{"mode":4,"attributes":{"POSITION":8,"NORMAL":9,"TEXCOORD_0":10},"indices":11,"material":0}]},{"primitives":[{"mode":4,"attributes":{"POSITION":12,"NORMAL":13,"TEXCOORD_0":14},"indices":15,"material":0}]},{"primitives":[{"mode":4,"attributes":{"POSITION":16,"NORMAL":17,"TEXCOORD_0":18},"indices":19,"material":0}]},{"primitives":[{"mode":4,"attributes":{"POSITION":20,"NORMAL":21,"TEXCOORD_0":22},"indices":23,"material":0}]},{"primitives":[{"mode":4,"attributes":{"POSITION":24,"NORMAL":25,"TEXCOORD_0":26},"indices":27,"material":0}]},{"primitives":[{"mode":4,"attributes":{"POSITION":28,"NORMAL":29,"TEXCOORD_0":30},"indices":31,"material":0}]},{"primitives":[{"mode":4,"attributes":{"POSITION":32,"NORMAL":33,"TEXCOORD_0":34},"indices":35,"material":0}]},{"primitives":[{"mode":4,"attributes":{"POSITION":36,"NORMAL":37,"TEXCOORD_0":38},"indices":39,"material":0}]},{"primitives":[{"mode":4,"attributes":{"POSITION":40,"NORMAL":41,"TEXCOORD_0":42},"indices":43,"material":0}]},{"primitives":[{"mode":4,"attributes":{"POSITION":44,"NORMAL":45,"TEXCOORD_0":46},"indices":47,"material":0}]},{"primitives":[{"mode":4,"attributes":{"POSITION":48,"NORMAL":49,"TEXCOORD_0":50},"indices":51,"material":1}]},{"primitives":[{"mode":4,"attributes":{"POSITION":52,"NORMAL":53,"TEXCOORD_0":54},"indices":55,"material":1}]},{"primitives":[{"mode":4,"attributes":{"POSITION":56,"NORMAL":57,"TEXCOORD_0":58},"indices":59,"material":2}]}],"skins":[{"inverseBindMatrices":60,"joints":[25,24,23,22],"skeleton":25},{"inverseBindMatrices":61,"joints":[29,28,27],"skeleton":29},{"inverseBindMatrices":62,"joints":[39,38,37,36,35,34,33,32,31],"skeleton":39}],"animations":[{"name":"animation","samplers":[{"input":63,"output":64,"interpolation":"LINEAR"},{"input":65,"output":66,"interpolation":"LINEAR"},{"input":67,"output":68,"interpolation":"LINEAR"}],"channels":[{"sampler":0,"target":{"node":22,"path":"rotation"}},{"sampler":1,"target":{"node":25,"path":"rotation"}},{"sampler":2,"target":{"node":39,"path":"rotation"}}]}]}