{"asset":{"version":"2.0","generator":"Blockbench 5.0.4 glTF exporter"},"scenes":[{"nodes":[0,1,2,3,4,5],"name":"blockbench_export"}],"scene":0,"nodes":[{"name":"cylinder","mesh":0},{"translation":[-0.015625,0.7875,-0.010416875],"name":"cylinder","mesh":1},{"rotation":[0,-0.9320078692827984,0,0.3624380382837017],"translation":[-0.015625,0.6,-0.010416875],"name":"cylinder","mesh":2},{"translation":[0,1.8125,0],"name":"cuboid","mesh":3},{"rotation":[0,0,0.02181488503456112,0.9997620270799091],"translation":[-0.5,1.0625,0],"name":"cuboid","mesh":4},{"rotation":[-0.12801816803650923,-0.025464396871748916,-0.1934212972666523,0.9723945263668545],"translation":[0.3125,1.25,-0.25],"name":"cuboid","mesh":5}],"bufferViews":[{"buffer":0,"byteOffset":0,"byteLength":624,"target":34962,"byteStride":12},{"buffer":0,"byteOffset":624,"byteLength":624,"target":34962,"byteStride":12},{"buffer":0,"byteOffset":1248,"byteLength":416,"target":34962,"byteStride":8},{"buffer":0,"byteOffset":1664,"byteLength":156,"target":34963},{"buffer":0,"byteOffset":1820,"byteLength":288,"target":34962,"byteStride":12},{"buffer":0,"byteOffset":2108,"byteLength":288,"target":34962,"byteStride":12},{"buffer":0,"byteOffset":2396,"byteLength":192,"target":34962,"byteStride":8},{"buffer":0,"byteOffset":2588,"byteLength":72,"target":34963},{"buffer":0,"byteOffset":2660,"byteLength":288,"target":34962,"byteStride":12},{"buffer":0,"byteOffset":2948,"byteLength":288,"target":34962,"byteStride":12},{"buffer":0,"byteOffset":3236,"byteLength":192,"target":34962,"byteStride":8},{"buffer":0,"byteOffset":3428,"byteLength":72,"target":34963},{"buffer":0,"byteOffset":3500,"byteLength":1656,"target":34962,"byteStride":12},{"buffer":0,"byteOffset":5156,"byteLength":1656,"target":34962,"byteStride":12},{"buffer":0,"byteOffset":6812,"byteLength":1104,"target":34962,"byteStride":8},{"buffer":0,"byteOffset":7916,"byteLength":348,"target":34963},{"buffer":0,"byteOffset":8264,"byteLength":1344,"target":34962,"byteStride":12},{"buffer":0,"byteOffset":9608,"byteLength":1344,"target":34962,"byteStride":12},{"buffer":0,"byteOffset":10952,"byteLength":896,"target":34962,"byteStride":8},{"buffer":0,"byteOffset":11848,"byteLength":288,"target":34963},{"buffer":0,"byteOffset":12136,"byteLength":1344,"target":34962,"byteStride":12},{"buffer":0,"byteOffset":13480,"byteLength":1344,"target":34962,"byteStride":12},{"buffer":0,"byteOffset":14824,"byteLength":896,"target":34962,"byteStride":8},{"buffer":0,"byteOffset":15720,"byteLength":288,"target":34963}],"buffers":[{"byteLength":16008,"uri":"data:application/octet-stream;base64,"}],"accessors":[{"bufferView":0,"componentType":5126,"count":52,"max":[0.1082531213760376,2.625,0.09375],"min":[-0.1082531213760376,0,-0.09375],"type":"VEC3"},{"bufferView":1,"componentType":5126,"count":52,"max":[0.8656326532363892,0.030289126560091972,1],"min":[-0.8656326532363892,0,-1],"type":"VEC3"},{"bufferView":2,"componentType":5126,"count":52,"max":[0.412109375,0.7501171827316284],"min":[0,0.1171875],"type":"VEC2"},{"bufferView":3,"componentType":5123,"count":78,"max":[51],"min":[0],"type":"SCALAR"},{"bufferView":4,"componentType":5126,"count":24,"max":[0.008372499607503414,0.1945018768310547,0.010416874662041664],"min":[-0.4771224856376648,-0.05899687483906746,-0.020833125337958336],"type":"VEC3"},{"bufferView":5,"componentType":5126,"count":24,"max":[0.4719107449054718,0.8304378986358643,1],"min":[-0.4719107449054718,-0.8304378986358643,-0.5768240094184875],"type":"VEC3"},{"bufferView":6,"componentType":5126,"count":24,"max":[0.5390625,0.4375],"min":[0,0.03125],"type":"VEC2"},{"bufferView":7,"componentType":5123,"count":36,"max":[23],"min":[0],"type":"SCALAR"},{"bufferView":8,"componentType":5126,"count":24,"max":[0.008372499607503414,0.6945018768310547,0.010416874662041664],"min":[-0.4771224856376648,0.44100311398506165,-0.020833125337958336],"type":"VEC3"},{"bufferView":9,"componentType":5126,"count":24,"max":[0.4719107449054718,0.8304378986358643,1],"min":[-0.4719107449054718,-0.8304378986358643,-0.5768240094184875],"type":"VEC3"},{"bufferView":10,"componentType":5126,"count":24,"max":[0.546875,0.244140625],"min":[0.15625,0],"type":"VEC2"},{"bufferView":11,"componentType":5123,"count":36,"max":[23],"min":[0],"type":"SCALAR"},{"bufferView":12,"componentType":5126,"count":138,"max":[0.8125,1.5625,0.8125],"min":[-0.8125,-0.0625,-0.8125],"type":"VEC3"},{"bufferView":13,"componentType":5126,"count":138,"max":[0.8160244226455688,0.8041010499000549,0.8248627781867981],"min":[-0.8671520352363586,-0.9214425683021545,-0.8248627781867981],"type":"VEC3"},{"bufferView":14,"componentType":5126,"count":138,"max":[0.533203125,0.48574298620224],"min":[0.0011593749513849616,0],"type":"VEC2"},{"bufferView":15,"componentType":5123,"count":174,"max":[137],"min":[0],"type":"SCALAR"},{"bufferView":16,"componentType":5126,"count":112,"max":[0.25,0.375,0.25],"min":[-0.25,-0.125,-0.25],"type":"VEC3"},{"bufferView":17,"componentType":5126,"count":112,"max":[0.8160243630409241,0.68824702501297,0.8248627185821533],"min":[-0.8160243630409241,-0.9214423298835754,-0.8248627185821533],"type":"VEC3"},{"bufferView":18,"componentType":5126,"count":112,"max":[0.5234375,0.5324687361717224],"min":[0.00014531250053551048,0.0005586147308349609],"type":"VEC2"},{"bufferView":19,"componentType":5123,"count":144,"max":[111],"min":[0],"type":"SCALAR"},{"bufferView":20,"componentType":5126,"count":112,"max":[0.25,0.75,0.25],"min":[-0.25,-0.0625,-0.25],"type":"VEC3"},{"bufferView":21,"componentType":5126,"count":112,"max":[0.8912103176116943,0.5041755437850952,0.8660659193992615],"min":[-0.8912103176116943,-0.8249427080154419,-0.8660659193992615],"type":"VEC3"},{"bufferView":22,"componentType":5126,"count":112,"max":[0.52734375,0.5248022079467773],"min":[0.03125,0.0018665790557861328],"type":"VEC2"},{"bufferView":23,"componentType":5123,"count":144,"max":[111],"min":[0],"type":"SCALAR"}],"materials":[{"pbrMetallicRoughness":{"metallicFactor":0,"roughnessFactor":1,"baseColorTexture":{"index":0}},"alphaMode":"MASK","alphaCutoff":0.05,"doubleSided":true}],"textures":[{"sampler":0,"source":0,"name":"Tree5Tex.png"}],"samplers":[{"magFilter":9728,"minFilter":9728,"wrapS":33071,"wrapT":33071}],"images":[{"mimeType":"image/png","uri":"data:image/png;base64,"}],"meshes":[{"primitives":[{"mode":4,"attributes":{"POSITION":0,"NORMAL":1,"TEXCOORD_0":2},"indices":3,"material":0}]},{"primitives":[{"mode":4,"attributes":{"POSITION":4,"NORMAL":5,"TEXCOORD_0":6},"indices":7,"material":0}]},{"primitives":[{"mode":4,"attributes":{"POSITION":8,"NORMAL":9,"TEXCOORD_0":10},"indices":11,"material":0}]},{"primitives":[{"mode":4,"attributes":{"POSITION":12,"NORMAL":13,"TEXCOORD_0":14},"indices":15,"material":0}]},{"primitives":[{"mode":4,"attributes":{"POSITION":16,"NORMAL":17,"TEXCOORD_0":18},"indices":19,"material":0}]},{"primitives":[{"mode":4,"attributes":{"POSITION":20,"NORMAL":21,"TEXCOORD_0":22},"indices":23,"material":0}]}]}