{"asset":{"version":"2.0","generator":"Blockbench 5.0.4 glTF exporter"},"scenes":[{"nodes":[0,1,2],"name":"blockbench_export"}],"scene":0,"nodes":[{"rotation":[0.004506751842975255,0.36289376349378,0.03274492232778669,0.931244101010521],"translation":[0,-0.125,0],"name":"pyramid","mesh":0},{"rotation":[-0.02162825566897606,0.0028474138772794514,0.13049513052094064,0.9912089243450402],"translation":[0.125,-0.75,0],"name":"pyramid","mesh":1},{"translation":[0,-1.375,0],"name":"cylinder","mesh":2}],"bufferViews":[{"buffer":0,"byteOffset":0,"byteLength":672,"target":34962,"byteStride":12},{"buffer":0,"byteOffset":672,"byteLength":672,"target":34962,"byteStride":12},{"buffer":0,"byteOffset":1344,"byteLength":448,"target":34962,"byteStride":8},{"buffer":0,"byteOffset":1792,"byteLength":144,"target":34963},{"buffer":0,"byteOffset":1936,"byteLength":672,"target":34962,"byteStride":12},{"buffer":0,"byteOffset":2608,"byteLength":672,"target":34962,"byteStride":12},{"buffer":0,"byteOffset":3280,"byteLength":448,"target":34962,"byteStride":8},{"buffer":0,"byteOffset":3728,"byteLength":144,"target":34963},{"buffer":0,"byteOffset":3872,"byteLength":624,"target":34962,"byteStride":12},{"buffer":0,"byteOffset":4496,"byteLength":624,"target":34962,"byteStride":12},{"buffer":0,"byteOffset":5120,"byteLength":416,"target":34962,"byteStride":8},{"buffer":0,"byteOffset":5536,"byteLength":156,"target":34963}],"buffers":[{"byteLength":5692,"uri":"data:application/octet-stream;base64,"}],"accessors":[{"bufferView":0,"componentType":5126,"count":56,"max":[0.625,1,0.625],"min":[-0.625,0,-0.625],"type":"VEC3"},{"bufferView":1,"componentType":5126,"count":56,"max":[0.9044312834739685,0.6963106393814087,0.9044312834739685],"min":[-0.9044312834739685,0.3617725074291229,-0.9044312834739685],"type":"VEC3"},{"bufferView":2,"componentType":5126,"count":56,"max":[0.5253617167472839,0.5234375],"min":[0.11886031180620193,0.1484375],"type":"VEC2"},{"bufferView":3,"componentType":5123,"count":72,"max":[55],"min":[0],"type":"SCALAR"},{"bufferView":4,"componentType":5126,"count":56,"max":[0.875,1,0.875],"min":[-0.875,0,-0.875],"type":"VEC3"},{"bufferView":5,"componentType":5126,"count":56,"max":[0.8524619340896606,0.8052762150764465,0.8524619340896606],"min":[-0.8524619340896606,0.4773786962032318,-0.8524619340896606],"type":"VEC3"},{"bufferView":6,"componentType":5126,"count":56,"max":[0.396484375,0.45609766244888306],"min":[0,0],"type":"VEC2"},{"bufferView":7,"componentType":5123,"count":72,"max":[55],"min":[0],"type":"SCALAR"},{"bufferView":8,"componentType":5126,"count":52,"max":[0.2693375051021576,1.0625,0.25],"min":[-0.2693375051021576,0,-0.25],"type":"VEC3"},{"bufferView":9,"componentType":5126,"count":52,"max":[0.8660255074501038,0.24253562092781067,1],"min":[-0.8660255074501038,0,-1],"type":"VEC3"},{"bufferView":10,"componentType":5126,"count":52,"max":[0.5706507563591003,0.9296875],"min":[0,0],"type":"VEC2"},{"bufferView":11,"componentType":5123,"count":78,"max":[51],"min":[0],"type":"SCALAR"}],"materials":[{"pbrMetallicRoughness":{"metallicFactor":0,"roughnessFactor":1,"baseColorTexture":{"index":0}},"alphaMode":"MASK","alphaCutoff":0.05,"doubleSided":true}],"textures":[{"sampler":0,"source":0,"name":"Tree1Tex.png"}],"samplers":[{"magFilter":9728,"minFilter":9728,"wrapS":33071,"wrapT":33071}],"images":[{"mimeType":"image/png","uri":"data:image/png;base64,"}],"meshes":[{"primitives":[{"mode":4,"attributes":{"POSITION":0,"NORMAL":1,"TEXCOORD_0":2},"indices":3,"material":0}]},{"primitives":[{"mode":4,"attributes":{"POSITION":4,"NORMAL":5,"TEXCOORD_0":6},"indices":7,"material":0}]},{"primitives":[{"mode":4,"attributes":{"POSITION":8,"NORMAL":9,"TEXCOORD_0":10},"indices":11,"material":0}]}]}