{"asset":{"version":"2.0","generator":"Blockbench 5.0.4 glTF exporter"},"scenes":[{"nodes":[0,1,2,3,4],"name":"blockbench_export"}],"scene":0,"nodes":[{"name":"cylinder","mesh":0},{"rotation":[0,0,0.07845909572784494,0.996917333733128],"translation":[0.0125,2.488602941176469,8.163404592832033e-19],"name":"pyramid","mesh":1},{"rotation":[-0.038053745811217475,-0.30140562334597754,0.03372222545397562,0.9521393669813204],"translation":[0.0125,1.6176470588235297,0.024999999999999994],"name":"pyramid","mesh":2},{"rotation":[-0.03498454265349125,0.13874865021836671,0.030575656176355746,0.9892370914433469],"translation":[0.0125,2.117646875,0.018750000000000003],"name":"pyramid","mesh":3},{"rotation":[-0.01711634911640971,0.10345778484436359,-0.04564821851954505,0.9934383511290545],"translation":[-0.0625,0.8240471723204886,0.01992668266943058],"name":"pyramid","mesh":4}],"bufferViews":[{"buffer":0,"byteOffset":0,"byteLength":624,"target":34962,"byteStride":12},{"buffer":0,"byteOffset":624,"byteLength":624,"target":34962,"byteStride":12},{"buffer":0,"byteOffset":1248,"byteLength":416,"target":34962,"byteStride":8},{"buffer":0,"byteOffset":1664,"byteLength":156,"target":34963},{"buffer":0,"byteOffset":1820,"byteLength":672,"target":34962,"byteStride":12},{"buffer":0,"byteOffset":2492,"byteLength":672,"target":34962,"byteStride":12},{"buffer":0,"byteOffset":3164,"byteLength":448,"target":34962,"byteStride":8},{"buffer":0,"byteOffset":3612,"byteLength":144,"target":34963},{"buffer":0,"byteOffset":3756,"byteLength":672,"target":34962,"byteStride":12},{"buffer":0,"byteOffset":4428,"byteLength":672,"target":34962,"byteStride":12},{"buffer":0,"byteOffset":5100,"byteLength":448,"target":34962,"byteStride":8},{"buffer":0,"byteOffset":5548,"byteLength":144,"target":34963},{"buffer":0,"byteOffset":5692,"byteLength":672,"target":34962,"byteStride":12},{"buffer":0,"byteOffset":6364,"byteLength":672,"target":34962,"byteStride":12},{"buffer":0,"byteOffset":7036,"byteLength":448,"target":34962,"byteStride":8},{"buffer":0,"byteOffset":7484,"byteLength":144,"target":34963},{"buffer":0,"byteOffset":7628,"byteLength":672,"target":34962,"byteStride":12},{"buffer":0,"byteOffset":8300,"byteLength":672,"target":34962,"byteStride":12},{"buffer":0,"byteOffset":8972,"byteLength":448,"target":34962,"byteStride":8},{"buffer":0,"byteOffset":9420,"byteLength":144,"target":34963}],"buffers":[{"byteLength":9564,"uri":"data:application/octet-stream;base64,"}],"accessors":[{"bufferView":0,"componentType":5126,"count":52,"max":[0.1082531213760376,2.625,0.09375],"min":[-0.1082531213760376,0,-0.09375],"type":"VEC3"},{"bufferView":1,"componentType":5126,"count":52,"max":[0.8656326532363892,0.030289126560091972,1],"min":[-0.8656326532363892,0,-1],"type":"VEC3"},{"bufferView":2,"componentType":5126,"count":52,"max":[0.22453905642032623,0.6954304575920105],"min":[0,0],"type":"VEC2"},{"bufferView":3,"componentType":5123,"count":78,"max":[51],"min":[0],"type":"SCALAR"},{"bufferView":4,"componentType":5126,"count":56,"max":[0.18125000596046448,0.26764705777168274,0.18125000596046448],"min":[-0.18125000596046448,-0.08235294371843338,-0.18125000596046448],"type":"VEC3"},{"bufferView":5,"componentType":5126,"count":56,"max":[0.9235752820968628,0.6265146732330322,0.9235752820968628],"min":[-0.9235752820968628,0.3060992360115051,-0.9235752820968628],"type":"VEC3"},{"bufferView":6,"componentType":5126,"count":56,"max":[0.45703125,0.4924445152282715],"min":[0.046875,0.1796875],"type":"VEC2"},{"bufferView":7,"componentType":5123,"count":72,"max":[55],"min":[0],"type":"SCALAR"},{"bufferView":8,"componentType":5126,"count":56,"max":[0.5,0.38235294818878174,0.5],"min":[-0.5,-0.2613970637321472,-0.5],"type":"VEC3"},{"bufferView":9,"componentType":5126,"count":56,"max":[0.8738388419151306,0.7696881294250488,0.8738388419151306],"min":[-0.8738388419151306,0.43437427282333374,-0.8738388419151306],"type":"VEC3"},{"bufferView":10,"componentType":5126,"count":56,"max":[0.3790479004383087,0.393943727016449],"min":[0.055176641792058945,0],"type":"VEC2"},{"bufferView":11,"componentType":5123,"count":72,"max":[55],"min":[0],"type":"SCALAR"},{"bufferView":12,"componentType":5126,"count":56,"max":[0.375,0.38235312700271606,0.375],"min":[-0.375,-0.21764688193798065,-0.375],"type":"VEC3"},{"bufferView":13,"componentType":5126,"count":56,"max":[0.9044312834739685,0.6963106393814087,0.9044312834739685],"min":[-0.9044312834739685,0.3617725074291229,-0.9044312834739685],"type":"VEC3"},{"bufferView":14,"componentType":5126,"count":56,"max":[0.431640625,0.461871862411499],"min":[0.109375,0],"type":"VEC2"},{"bufferView":15,"componentType":5123,"count":72,"max":[55],"min":[0],"type":"SCALAR"},{"bufferView":16,"componentType":5126,"count":56,"max":[0.875,0.7647058963775635,0.875],"min":[-0.875,-0.23529411852359772,-0.875],"type":"VEC3"},{"bufferView":17,"componentType":5126,"count":56,"max":[0.8524619340896606,0.8052762150764465,0.8524619340896606],"min":[-0.8524619340896606,0.4773786962032318,-0.8524619340896606],"type":"VEC3"},{"bufferView":18,"componentType":5126,"count":56,"max":[0.416015625,0.40922266244888306],"min":[0.0002393750037299469,0],"type":"VEC2"},{"bufferView":19,"componentType":5123,"count":72,"max":[55],"min":[0],"type":"SCALAR"}],"materials":[{"pbrMetallicRoughness":{"metallicFactor":0,"roughnessFactor":1,"baseColorTexture":{"index":0}},"alphaMode":"MASK","alphaCutoff":0.05,"doubleSided":true}],"textures":[{"sampler":0,"source":0,"name":"Tree4Tex.png"}],"samplers":[{"magFilter":9728,"minFilter":9728,"wrapS":33071,"wrapT":33071}],"images":[{"mimeType":"image/png","uri":"data:image/png;base64,"}],"meshes":[{"primitives":[{"mode":4,"attributes":{"POSITION":0,"NORMAL":1,"TEXCOORD_0":2},"indices":3,"material":0}]},{"primitives":[{"mode":4,"attributes":{"POSITION":4,"NORMAL":5,"TEXCOORD_0":6},"indices":7,"material":0}]},{"primitives":[{"mode":4,"attributes":{"POSITION":8,"NORMAL":9,"TEXCOORD_0":10},"indices":11,"material":0}]},{"primitives":[{"mode":4,"attributes":{"POSITION":12,"NORMAL":13,"TEXCOORD_0":14},"indices":15,"material":0}]},{"primitives":[{"mode":4,"attributes":{"POSITION":16,"NORMAL":17,"TEXCOORD_0":18},"indices":19,"material":0}]}]}