{"asset":{"version":"2.0","generator":"Blockbench 5.0.4 glTF exporter"},"scenes":[{"nodes":[0,1,2,5,6,8,9,10],"name":"blockbench_export"}],"scene":0,"nodes":[{"rotation":[6.123233995736766e-17,-1,6.123233995736766e-17,3.749399456654644e-33],"translation":[0.25,0.025,0],"name":"pump","mesh":0},{"rotation":[6.123233995736766e-17,-1,6.123233995736766e-17,3.749399456654644e-33],"translation":[0.46875,0.29375,0],"name":"cylinder","mesh":1},{"translation":[0,0,1.375],"name":"cuboid","mesh":2},{"translation":[2.5625,1.5296875,-0.006249999999999999],"name":"sign"},{"name":"station","children":[3]},{"translation":[-0.625,0.0625,0],"name":"station","mesh":3,"children":[4],"skin":0},{"translation":[0.51875,0.025,1.34375],"name":"cylinder","mesh":4},{"name":"hut"},{"translation":[0,0.75,1.75],"name":"hut","mesh":5,"children":[7],"skin":1},{"translation":[-0.25,0.025,0],"name":"pump","mesh":6},{"translation":[-0.03125,0.29375,0],"name":"cylinder","mesh":7}],"bufferViews":[{"buffer":0,"byteOffset":0,"byteLength":3504,"target":34962,"byteStride":12},{"buffer":0,"byteOffset":3504,"byteLength":3504,"target":34962,"byteStride":12},{"buffer":0,"byteOffset":7008,"byteLength":2336,"target":34962,"byteStride":8},{"buffer":0,"byteOffset":9344,"byteLength":828,"target":34963},{"buffer":0,"byteOffset":10172,"byteLength":2280,"target":34962,"byteStride":12},{"buffer":0,"byteOffset":12452,"byteLength":2280,"target":34962,"byteStride":12},{"buffer":0,"byteOffset":14732,"byteLength":1520,"target":34962,"byteStride":8},{"buffer":0,"byteOffset":16252,"byteLength":540,"target":34963},{"buffer":0,"byteOffset":16792,"byteLength":1056,"target":34962,"byteStride":12},{"buffer":0,"byteOffset":17848,"byteLength":1056,"target":34962,"byteStride":12},{"buffer":0,"byteOffset":18904,"byteLength":704,"target":34962,"byteStride":8},{"buffer":0,"byteOffset":19608,"byteLength":252,"target":34963},{"buffer":0,"byteOffset":19860,"byteLength":13920,"target":34962,"byteStride":12},{"buffer":0,"byteOffset":33780,"byteLength":13920,"target":34962,"byteStride":12},{"buffer":0,"byteOffset":47700,"byteLength":9280,"target":34962,"byteStride":8},{"buffer":0,"byteOffset":56980,"byteLength":9280,"target":34962,"byteStride":8},{"buffer":0,"byteOffset":66260,"byteLength":18560,"target":34962,"byteStride":16},{"buffer":0,"byteOffset":84820,"byteLength":3420,"target":34963},{"buffer":0,"byteOffset":88240,"byteLength":1260,"target":34962,"byteStride":12},{"buffer":0,"byteOffset":89500,"byteLength":1260,"target":34962,"byteStride":12},{"buffer":0,"byteOffset":90760,"byteLength":840,"target":34962,"byteStride":8},{"buffer":0,"byteOffset":91600,"byteLength":296,"target":34963},{"buffer":0,"byteOffset":91896,"byteLength":3780,"target":34962,"byteStride":12},{"buffer":0,"byteOffset":95676,"byteLength":3780,"target":34962,"byteStride":12},{"buffer":0,"byteOffset":99456,"byteLength":2520,"target":34962,"byteStride":8},{"buffer":0,"byteOffset":101976,"byteLength":2520,"target":34962,"byteStride":8},{"buffer":0,"byteOffset":104496,"byteLength":5040,"target":34962,"byteStride":16},{"buffer":0,"byteOffset":109536,"byteLength":932,"target":34963},{"buffer":0,"byteOffset":110468,"byteLength":3504,"target":34962,"byteStride":12},{"buffer":0,"byteOffset":113972,"byteLength":3504,"target":34962,"byteStride":12},{"buffer":0,"byteOffset":117476,"byteLength":2336,"target":34962,"byteStride":8},{"buffer":0,"byteOffset":119812,"byteLength":828,"target":34963},{"buffer":0,"byteOffset":120640,"byteLength":2280,"target":34962,"byteStride":12},{"buffer":0,"byteOffset":122920,"byteLength":2280,"target":34962,"byteStride":12},{"buffer":0,"byteOffset":125200,"byteLength":1520,"target":34962,"byteStride":8},{"buffer":0,"byteOffset":126720,"byteLength":540,"target":34963},{"buffer":0,"byteOffset":127260,"byteLength":128},{"buffer":0,"byteOffset":127388,"byteLength":64},{"buffer":0,"byteOffset":127452,"byteLength":16},{"buffer":0,"byteOffset":127468,"byteLength":64}],"buffers":[{"byteLength":127532,"uri":"data:application/octet-stream;base64,"}],"accessors":[{"bufferView":0,"componentType":5126,"count":292,"max":[0.15625,0.7740487456321716,0.10700812190771103],"min":[-0.17499999701976776,-0.0008268749807029963,-0.10700812190771103],"type":"VEC3"},{"bufferView":1,"componentType":5126,"count":292,"max":[1,1,1],"min":[-1,-1,-1],"type":"VEC3"},{"bufferView":2,"componentType":5126,"count":292,"max":[0.5888671875,0.591796875],"min":[0.5029296875,0.501953125],"type":"VEC2"},{"bufferView":3,"componentType":5123,"count":414,"max":[291],"min":[0],"type":"SCALAR"},{"bufferView":4,"componentType":5126,"count":190,"max":[0.0625,0.18597312271595,0.01875000074505806],"min":[-0.010973124764859676,0.02500000037252903,-0.03350437432527542],"type":"VEC3"},{"bufferView":5,"componentType":5126,"count":190,"max":[1,1,1],"min":[-0.9682988524436951,-1,-1],"type":"VEC3"},{"bufferView":6,"componentType":5126,"count":190,"max":[0.599836528301239,0.599609375],"min":[0.5030249953269958,0.501953125],"type":"VEC2"},{"bufferView":7,"componentType":5123,"count":270,"max":[189],"min":[0],"type":"SCALAR"},{"bufferView":8,"componentType":5126,"count":88,"max":[0.6541668772697449,0.02500000037252903,0.8125],"min":[-0.5625,0,-0.25],"type":"VEC3"},{"bufferView":9,"componentType":5126,"count":88,"max":[0.44711223244667053,1,1],"min":[-1,0,-1],"type":"VEC3"},{"bufferView":10,"componentType":5126,"count":88,"max":[0.384765625,0.5855468511581421],"min":[0.251953125,0.501953125],"type":"VEC2"},{"bufferView":11,"componentType":5123,"count":126,"max":[87],"min":[0],"type":"SCALAR"},{"bufferView":12,"componentType":5126,"count":1160,"max":[2.9223318099975586,2.184408187866211,0.6875],"min":[-0.4375,-0.0625,-0.6875],"type":"VEC3"},{"bufferView":13,"componentType":5126,"count":1160,"max":[1,1,1],"min":[-1,-1,-1],"type":"VEC3"},{"bufferView":14,"componentType":5126,"count":1160,"max":[0.3330078125,0.3330078125],"min":[0.0009765625,0.0009765475988388062],"type":"VEC2"},{"bufferView":15,"componentType":5123,"count":1160,"max":[0,1,0,0],"min":[0,0,0,0],"type":"VEC4"},{"bufferView":16,"componentType":5126,"count":1160,"max":[0,1,0,0],"min":[0,1,0,0],"type":"VEC4"},{"bufferView":17,"componentType":5123,"count":1710,"max":[1159],"min":[0],"type":"SCALAR"},{"bufferView":18,"componentType":5126,"count":105,"max":[0.0826956257224083,0.1875,0.07500000298023224],"min":[-0.0826956257224083,0,-0.0853043720126152],"type":"VEC3"},{"bufferView":19,"componentType":5126,"count":105,"max":[0.9735515117645264,1,0.9988515973091125],"min":[-0.9735515117645264,-0.04791158065199852,-0.9852504730224609],"type":"VEC3"},{"bufferView":20,"componentType":5126,"count":105,"max":[0.5546875,0.6787109375],"min":[0.5029296875,0.6279296875],"type":"VEC2"},{"bufferView":21,"componentType":5123,"count":147,"max":[104],"min":[0],"type":"SCALAR"},{"bufferView":22,"componentType":5126,"count":315,"max":[0.625,0.28125,0.625],"min":[-0.625,-0.7616956233978271,-0.5625],"type":"VEC3"},{"bufferView":23,"componentType":5126,"count":315,"max":[1,1,1],"min":[-1,-1,-1],"type":"VEC3"},{"bufferView":24,"componentType":5126,"count":315,"max":[0.6025390625,0.716796875],"min":[0.0009765625,0.501953125],"type":"VEC2"},{"bufferView":25,"componentType":5123,"count":315,"max":[0,0,0,0],"min":[0,0,0,0],"type":"VEC4"},{"bufferView":26,"componentType":5126,"count":315,"max":[0,1,0,0],"min":[0,1,0,0],"type":"VEC4"},{"bufferView":27,"componentType":5123,"count":465,"max":[314],"min":[0],"type":"SCALAR"},{"bufferView":28,"componentType":5126,"count":292,"max":[0.17499999701976776,0.7740487456321716,0.10700812190771103],"min":[-0.15625,-0.0008268749807029963,-0.10700812190771103],"type":"VEC3"},{"bufferView":29,"componentType":5126,"count":292,"max":[1,1,1],"min":[-1,-1,-1],"type":"VEC3"},{"bufferView":30,"componentType":5126,"count":292,"max":[0.5888671875,0.591796875],"min":[0.5029296875,0.501953125],"type":"VEC2"},{"bufferView":31,"componentType":5123,"count":414,"max":[291],"min":[0],"type":"SCALAR"},{"bufferView":32,"componentType":5126,"count":190,"max":[0.010973124764859676,0.18597312271595,0.01875000074505806],"min":[-0.0625,0.02500000037252903,-0.03350437432527542],"type":"VEC3"},{"bufferView":33,"componentType":5126,"count":190,"max":[0.9682988524436951,1,1],"min":[-1,-1,-1],"type":"VEC3"},{"bufferView":34,"componentType":5126,"count":190,"max":[0.599836528301239,0.599609375],"min":[0.5030249953269958,0.501953125],"type":"VEC2"},{"bufferView":35,"componentType":5123,"count":270,"max":[189],"min":[0],"type":"SCALAR"},{"bufferView":36,"componentType":5126,"count":2,"max":[1,0,0,0,0,1,0,0,0,0,1,0,0,0,0.0062500000931322575,1],"min":[1,0,0,0,0,1,0,0,0,0,1,0,-2.5625,-1.529687523841858,0,1],"type":"MAT4"},{"bufferView":37,"componentType":5126,"count":1,"max":[1,0,0,0,0,1,0,0,0,0,1,0,0,0,0,1],"min":[1,0,0,0,0,1,0,0,0,0,1,0,0,0,0,1],"type":"MAT4"},{"bufferView":38,"componentType":5126,"count":4,"max":[2.5],"min":[0],"type":"SCALAR"},{"bufferView":39,"componentType":5126,"count":4,"max":[0,0.8660253882408142,0,1],"min":[0,0,0,-1],"type":"VEC4"}],"materials":[{"pbrMetallicRoughness":{"metallicFactor":0,"roughnessFactor":1,"baseColorTexture":{"index":0}},"alphaMode":"MASK","alphaCutoff":0.05,"doubleSided":true}],"textures":[{"sampler":0,"source":0,"name":"stiched_texture"}],"samplers":[{"magFilter":9728,"minFilter":9728,"wrapS":33071,"wrapT":33071}],"images":[{"mimeType":"image/png","uri":"data:image/png;base64,"}],"meshes":[{"primitives":[{"mode":4,"attributes":{"POSITION":0,"NORMAL":1,"TEXCOORD_0":2},"indices":3,"material":0}]},{"primitives":[{"mode":4,"attributes":{"POSITION":4,"NORMAL":5,"TEXCOORD_0":6},"indices":7,"material":0}]},{"primitives":[{"mode":4,"attributes":{"POSITION":8,"NORMAL":9,"TEXCOORD_0":10},"indices":11,"material":0}]},{"primitives":[{"mode":4,"attributes":{"POSITION":12,"NORMAL":13,"TEXCOORD_0":14,"JOINTS_0":15,"WEIGHTS_0":16},"indices":17,"material":0}]},{"primitives":[{"mode":4,"attributes":{"POSITION":18,"NORMAL":19,"TEXCOORD_0":20},"indices":21,"material":0}]},{"primitives":[{"mode":4,"attributes":{"POSITION":22,"NORMAL":23,"TEXCOORD_0":24,"JOINTS_0":25,"WEIGHTS_0":26},"indices":27,"material":0}]},{"primitives":[{"mode":4,"attributes":{"POSITION":28,"NORMAL":29,"TEXCOORD_0":30},"indices":31,"material":0}]},{"primitives":[{"mode":4,"attributes":{"POSITION":32,"NORMAL":33,"TEXCOORD_0":34},"indices":35,"material":0}]}],"skins":[{"inverseBindMatrices":36,"joints":[4,3],"skeleton":4},{"inverseBindMatrices":37,"joints":[7],"skeleton":7}],"animations":[{"name":"Anim_signSpin","samplers":[{"input":38,"output":39,"interpolation":"LINEAR"}],"channels":[{"sampler":0,"target":{"node":3,"path":"rotation"}}]}]}