{"asset":{"version":"2.0","generator":"Blockbench 5.0.4 glTF exporter"},"scenes":[{"nodes":[0,1],"name":"blockbench_export"}],"scene":0,"nodes":[{"name":"cylinder","mesh":0},{"translation":[0,0.1875,0.1875],"name":"cylinder","mesh":1}],"bufferViews":[{"buffer":0,"byteOffset":0,"byteLength":1512,"target":34962,"byteStride":12},{"buffer":0,"byteOffset":1512,"byteLength":1512,"target":34962,"byteStride":12},{"buffer":0,"byteOffset":3024,"byteLength":1008,"target":34962,"byteStride":8},{"buffer":0,"byteOffset":4032,"byteLength":336,"target":34963},{"buffer":0,"byteOffset":4368,"byteLength":2028,"target":34962,"byteStride":12},{"buffer":0,"byteOffset":6396,"byteLength":2028,"target":34962,"byteStride":12},{"buffer":0,"byteOffset":8424,"byteLength":1352,"target":34962,"byteStride":8},{"buffer":0,"byteOffset":9776,"byteLength":488,"target":34963}],"buffers":[{"byteLength":10264,"uri":"data:application/octet-stream;base64,"}],"accessors":[{"bufferView":0,"componentType":5126,"count":126,"max":[0.11506500095129013,0.75,0.11249999701976776],"min":[-0.11506500095129013,0,-0.11593499779701233],"type":"VEC3"},{"bufferView":1,"componentType":5126,"count":126,"max":[0.9734411835670471,0.9004718661308289,0.9976269006729126],"min":[-0.9734618067741394,-1,-0.8977609276771545],"type":"VEC3"},{"bufferView":2,"componentType":5126,"count":126,"max":[0.4583437442779541,0.444489061832428],"min":[0.3125,0.03125],"type":"VEC2"},{"bufferView":3,"componentType":5123,"count":168,"max":[125],"min":[0],"type":"SCALAR"},{"bufferView":4,"componentType":5126,"count":169,"max":[0.05256500095129013,0.625,0.05000000074505806],"min":[-0.05256500095129013,0.15627999603748322,-0.12651312351226807],"type":"VEC3"},{"bufferView":5,"componentType":5126,"count":169,"max":[0.9708614945411682,0.8907499313354492,0.9950371980667114],"min":[-0.9709053635597229,-0.7969192862510681,-0.8974019885063171],"type":"VEC3"},{"bufferView":6,"componentType":5126,"count":169,"max":[0.4611000120639801,0.5150718688964844],"min":[0.375,0.25],"type":"VEC2"},{"bufferView":7,"componentType":5123,"count":243,"max":[168],"min":[0],"type":"SCALAR"}],"materials":[{"pbrMetallicRoughness":{"metallicFactor":0,"roughnessFactor":1,"baseColorTexture":{"index":0}},"alphaMode":"MASK","alphaCutoff":0.05,"doubleSided":true}],"textures":[{"sampler":0,"source":0,"name":"Cactus1Tex.png"}],"samplers":[{"magFilter":9728,"minFilter":9728,"wrapS":33071,"wrapT":33071}],"images":[{"mimeType":"image/png","uri":"data:image/png;base64,"}],"meshes":[{"primitives":[{"mode":4,"attributes":{"POSITION":0,"NORMAL":1,"TEXCOORD_0":2},"indices":3,"material":0}]},{"primitives":[{"mode":4,"attributes":{"POSITION":4,"NORMAL":5,"TEXCOORD_0":6},"indices":7,"material":0}]}]}