{"asset":{"version":"2.0","generator":"Blockbench 5.0.4 glTF exporter"},"scenes":[{"nodes":[0,1,2],"name":"blockbench_export"}],"scene":0,"nodes":[{"name":"cylinder","mesh":0},{"translation":[0,0.375,0],"name":"cylinder","mesh":1},{"rotation":[0,-1,0,6.123233995736766e-17],"translation":[0,0.375,0],"name":"cylinder","mesh":2}],"bufferViews":[{"buffer":0,"byteOffset":0,"byteLength":1260,"target":34962,"byteStride":12},{"buffer":0,"byteOffset":1260,"byteLength":1260,"target":34962,"byteStride":12},{"buffer":0,"byteOffset":2520,"byteLength":840,"target":34962,"byteStride":8},{"buffer":0,"byteOffset":3360,"byteLength":296,"target":34963},{"buffer":0,"byteOffset":3656,"byteLength":2028,"target":34962,"byteStride":12},{"buffer":0,"byteOffset":5684,"byteLength":2028,"target":34962,"byteStride":12},{"buffer":0,"byteOffset":7712,"byteLength":1352,"target":34962,"byteStride":8},{"buffer":0,"byteOffset":9064,"byteLength":488,"target":34963},{"buffer":0,"byteOffset":9552,"byteLength":2028,"target":34962,"byteStride":12},{"buffer":0,"byteOffset":11580,"byteLength":2028,"target":34962,"byteStride":12},{"buffer":0,"byteOffset":13608,"byteLength":1352,"target":34962,"byteStride":8},{"buffer":0,"byteOffset":14960,"byteLength":488,"target":34963}],"buffers":[{"byteLength":15448,"uri":"data:application/octet-stream;base64,"}],"accessors":[{"bufferView":0,"componentType":5126,"count":105,"max":[0.11506500095129013,1.375,0.11249999701976776],"min":[-0.11506500095129013,0,-0.11593499779701233],"type":"VEC3"},{"bufferView":1,"componentType":5126,"count":105,"max":[0.9747829437255859,0.7486781477928162,0.9992921948432922],"min":[-0.9747890830039978,-0.0376182422041893,-0.8989498615264893],"type":"VEC3"},{"bufferView":2,"componentType":5126,"count":105,"max":[0.895386278629303,0.7904159426689148],"min":[0,0],"type":"VEC2"},{"bufferView":3,"componentType":5123,"count":147,"max":[104],"min":[0],"type":"SCALAR"},{"bufferView":4,"componentType":5126,"count":169,"max":[0.05256500095129013,0.4375,0.23749999701976776],"min":[-0.05256500095129013,-0.031220000237226486,0.060986876487731934],"type":"VEC3"},{"bufferView":5,"componentType":5126,"count":169,"max":[0.9708614945411682,0.8907499313354492,0.9950371980667114],"min":[-0.9709053635597229,-0.7969192862510681,-0.8974019885063171],"type":"VEC3"},{"bufferView":6,"componentType":5126,"count":169,"max":[0.90625,0.90625],"min":[0.06535281240940094,0.004872500896453857],"type":"VEC2"},{"bufferView":7,"componentType":5123,"count":243,"max":[168],"min":[0],"type":"SCALAR"},{"bufferView":8,"componentType":5126,"count":169,"max":[0.05256500095129013,0.25,0.23749999701976776],"min":[-0.05256500095129013,-0.031220000237226486,0.060986876487731934],"type":"VEC3"},{"bufferView":9,"componentType":5126,"count":169,"max":[0.9637549519538879,0.9561983346939087,0.9863927364349365],"min":[-0.9638742804527283,-0.9102810621261597,-0.8911693692207336],"type":"VEC3"},{"bufferView":10,"componentType":5126,"count":169,"max":[0.90625,0.921875],"min":[0.007524999789893627,0.0033375024795532227],"type":"VEC2"},{"bufferView":11,"componentType":5123,"count":243,"max":[168],"min":[0],"type":"SCALAR"}],"materials":[{"pbrMetallicRoughness":{"metallicFactor":0,"roughnessFactor":1,"baseColorTexture":{"index":0}},"alphaMode":"MASK","alphaCutoff":0.05,"doubleSided":true}],"textures":[{"sampler":0,"source":0,"name":"Cactus2Tex.png"}],"samplers":[{"magFilter":9728,"minFilter":9728,"wrapS":33071,"wrapT":33071}],"images":[{"mimeType":"image/png","uri":"data:image/png;base64,"}],"meshes":[{"primitives":[{"mode":4,"attributes":{"POSITION":0,"NORMAL":1,"TEXCOORD_0":2},"indices":3,"material":0}]},{"primitives":[{"mode":4,"attributes":{"POSITION":4,"NORMAL":5,"TEXCOORD_0":6},"indices":7,"material":0}]},{"primitives":[{"mode":4,"attributes":{"POSITION":8,"NORMAL":9,"TEXCOORD_0":10},"indices":11,"material":0}]}]}