{"asset":{"version":"2.0","generator":"Blockbench 5.0.4 glTF exporter"},"scenes":[{"nodes":[0,1],"name":"blockbench_export"}],"scene":0,"nodes":[{"name":"cylinder","mesh":0},{"rotation":[0,0,-1,6.123233995736766e-17],"translation":[0,0.875,0],"name":"cone","mesh":1}],"bufferViews":[{"buffer":0,"byteOffset":0,"byteLength":1260,"target":34962,"byteStride":12},{"buffer":0,"byteOffset":1260,"byteLength":1260,"target":34962,"byteStride":12},{"buffer":0,"byteOffset":2520,"byteLength":840,"target":34962,"byteStride":8},{"buffer":0,"byteOffset":3360,"byteLength":296,"target":34963},{"buffer":0,"byteOffset":3656,"byteLength":360,"target":34962,"byteStride":12},{"buffer":0,"byteOffset":4016,"byteLength":360,"target":34962,"byteStride":12},{"buffer":0,"byteOffset":4376,"byteLength":240,"target":34962,"byteStride":8},{"buffer":0,"byteOffset":4616,"byteLength":60,"target":34963}],"buffers":[{"byteLength":4676,"uri":"data:application/octet-stream;base64,"}],"accessors":[{"bufferView":0,"componentType":5126,"count":105,"max":[0.375,0.8125,0.36126062273979187],"min":[-0.375,0,-0.38873937726020813],"type":"VEC3"},{"bufferView":1,"componentType":5126,"count":105,"max":[0.9761254787445068,0.8878270387649536,1],"min":[-0.9761254787445068,-0.43443411588668823,-0.8965837955474854],"type":"VEC3"},{"bufferView":2,"componentType":5126,"count":105,"max":[0.3984375,0.314453125],"min":[0,0],"type":"VEC2"},{"bufferView":3,"componentType":5123,"count":147,"max":[104],"min":[0],"type":"SCALAR"},{"bufferView":4,"componentType":5126,"count":30,"max":[0.07347312569618225,0.06136937439441681,0.0625],"min":[-0.07347312569618225,-0.0625,-0.07725437730550766],"type":"VEC3"},{"bufferView":5,"componentType":5126,"count":30,"max":[0.8606398105621338,0.5102125406265259,0.8241851329803467],"min":[-0.8607321381568909,0.5080559253692627,-0.8166427612304688],"type":"VEC3"},{"bufferView":6,"componentType":5126,"count":30,"max":[0.1328125,0.5492384433746338],"min":[0.00031507812673226,0.5],"type":"VEC2"},{"bufferView":7,"componentType":5123,"count":30,"max":[29],"min":[0],"type":"SCALAR"}],"materials":[{"pbrMetallicRoughness":{"metallicFactor":0,"roughnessFactor":1,"baseColorTexture":{"index":0}},"alphaMode":"MASK","alphaCutoff":0.05,"doubleSided":true}],"textures":[{"sampler":0,"source":0,"name":"Cactus3Tex.png"}],"samplers":[{"magFilter":9728,"minFilter":9728,"wrapS":33071,"wrapT":33071}],"images":[{"mimeType":"image/png","uri":"data:image/png;base64,"}],"meshes":[{"primitives":[{"mode":4,"attributes":{"POSITION":0,"NORMAL":1,"TEXCOORD_0":2},"indices":3,"material":0}]},{"primitives":[{"mode":4,"attributes":{"POSITION":4,"NORMAL":5,"TEXCOORD_0":6},"indices":7,"material":0}]}]}