{"asset":{"version":"2.0","generator":"Blockbench 5.0.4 glTF exporter"},"scenes":[{"nodes":[0,1,2],"name":"blockbench_export"}],"scene":0,"nodes":[{"name":"cylinder","mesh":0},{"translation":[0,0,-0.125],"name":"cylinder","mesh":1},{"rotation":[0,-0.7313537016191705,0,0.6819983600624986],"translation":[-0.075,0,-0.00625],"name":"cylinder","mesh":2}],"bufferViews":[{"buffer":0,"byteOffset":0,"byteLength":588,"target":34962,"byteStride":12},{"buffer":0,"byteOffset":588,"byteLength":588,"target":34962,"byteStride":12},{"buffer":0,"byteOffset":1176,"byteLength":392,"target":34962,"byteStride":8},{"buffer":0,"byteOffset":1568,"byteLength":128,"target":34963},{"buffer":0,"byteOffset":1696,"byteLength":924,"target":34962,"byteStride":12},{"buffer":0,"byteOffset":2620,"byteLength":924,"target":34962,"byteStride":12},{"buffer":0,"byteOffset":3544,"byteLength":616,"target":34962,"byteStride":8},{"buffer":0,"byteOffset":4160,"byteLength":212,"target":34963},{"buffer":0,"byteOffset":4372,"byteLength":924,"target":34962,"byteStride":12},{"buffer":0,"byteOffset":5296,"byteLength":924,"target":34962,"byteStride":12},{"buffer":0,"byteOffset":6220,"byteLength":616,"target":34962,"byteStride":8},{"buffer":0,"byteOffset":6836,"byteLength":212,"target":34963}],"buffers":[{"byteLength":7048,"uri":"data:application/octet-stream;base64,"}],"accessors":[{"bufferView":0,"componentType":5126,"count":49,"max":[0.06763062626123428,0.625,0.0625],"min":[-0.06763062626123428,0,-0.06937000155448914],"type":"VEC3"},{"bufferView":1,"componentType":5126,"count":49,"max":[0.974928081035614,0.12403495609760284,1],"min":[-0.974928081035614,0,-0.9009672403335571],"type":"VEC3"},{"bufferView":2,"componentType":5126,"count":49,"max":[0.375,0.6894468665122986],"min":[0.0011500000255182385,0],"type":"VEC2"},{"bufferView":3,"componentType":5123,"count":63,"max":[48],"min":[0],"type":"SCALAR"},{"bufferView":4,"componentType":5126,"count":77,"max":[0.048880625516176224,0.5,0.06875000149011612],"min":[-0.06763062626123428,0,-0.038120001554489136],"type":"VEC3"},{"bufferView":5,"componentType":5126,"count":77,"max":[0.9692023396492004,0.30968916416168213,1],"min":[-0.9692023396492004,-0.06807243824005127,-0.9178054332733154],"type":"VEC3"},{"bufferView":6,"componentType":5126,"count":77,"max":[0.49309688806533813,0.6285030841827393],"min":[0.0074812499806284904,0],"type":"VEC2"},{"bufferView":7,"componentType":5123,"count":105,"max":[76],"min":[0],"type":"SCALAR"},{"bufferView":8,"componentType":5126,"count":77,"max":[0.011380624957382679,0.3812499940395355,0.05000000074505806],"min":[-0.06763062626123428,0,-0.038120001554489136],"type":"VEC3"},{"bufferView":9,"componentType":5126,"count":77,"max":[0.9788557291030884,0.3073619306087494,1],"min":[-0.9788557291030884,-0.06599926203489304,-0.8850401639938354],"type":"VEC3"},{"bufferView":10,"componentType":5126,"count":77,"max":[0.6123375296592712,0.7562437653541565],"min":[0.46931248903274536,0],"type":"VEC2"},{"bufferView":11,"componentType":5123,"count":105,"max":[76],"min":[0],"type":"SCALAR"}],"materials":[{"pbrMetallicRoughness":{"metallicFactor":0,"roughnessFactor":1,"baseColorTexture":{"index":0}},"alphaMode":"MASK","alphaCutoff":0.05,"doubleSided":true}],"textures":[{"sampler":0,"source":0,"name":"Roots1Tex"}],"samplers":[{"magFilter":9728,"minFilter":9728,"wrapS":33071,"wrapT":33071}],"images":[{"mimeType":"image/png","uri":"data:image/png;base64,"}],"meshes":[{"primitives":[{"mode":4,"attributes":{"POSITION":0,"NORMAL":1,"TEXCOORD_0":2},"indices":3,"material":0}]},{"primitives":[{"mode":4,"attributes":{"POSITION":4,"NORMAL":5,"TEXCOORD_0":6},"indices":7,"material":0}]},{"primitives":[{"mode":4,"attributes":{"POSITION":8,"NORMAL":9,"TEXCOORD_0":10},"indices":11,"material":0}]}]}