{"asset":{"version":"2.0","generator":"Blockbench 5.0.4 glTF exporter"},"scenes":[{"nodes":[0,1,2,3],"name":"blockbench_export"}],"scene":0,"nodes":[{"rotation":[0.7071067811865475,0,0,0.7071067811865476],"name":"torus","mesh":0},{"rotation":[0.5896463195190134,-0.39027838510181617,0.3902783851018162,0.5896463195190135],"translation":[0.11875,-0.01875,0],"name":"torus","mesh":1},{"translation":[0.0375,0,-0.1],"name":"cylinder","mesh":2},{"rotation":[0,0.8703556959398997,0,0.4924235601034671],"translation":[-0.1,0,-0.05],"name":"cylinder","mesh":3}],"bufferViews":[{"buffer":0,"byteOffset":0,"byteLength":3360,"target":34962,"byteStride":12},{"buffer":0,"byteOffset":3360,"byteLength":3360,"target":34962,"byteStride":12},{"buffer":0,"byteOffset":6720,"byteLength":2240,"target":34962,"byteStride":8},{"buffer":0,"byteOffset":8960,"byteLength":840,"target":34963},{"buffer":0,"byteOffset":9800,"byteLength":3360,"target":34962,"byteStride":12},{"buffer":0,"byteOffset":13160,"byteLength":3360,"target":34962,"byteStride":12},{"buffer":0,"byteOffset":16520,"byteLength":2240,"target":34962,"byteStride":8},{"buffer":0,"byteOffset":18760,"byteLength":840,"target":34963},{"buffer":0,"byteOffset":19600,"byteLength":924,"target":34962,"byteStride":12},{"buffer":0,"byteOffset":20524,"byteLength":924,"target":34962,"byteStride":12},{"buffer":0,"byteOffset":21448,"byteLength":616,"target":34962,"byteStride":8},{"buffer":0,"byteOffset":22064,"byteLength":212,"target":34963},{"buffer":0,"byteOffset":22276,"byteLength":924,"target":34962,"byteStride":12},{"buffer":0,"byteOffset":23200,"byteLength":924,"target":34962,"byteStride":12},{"buffer":0,"byteOffset":24124,"byteLength":616,"target":34962,"byteStride":8},{"buffer":0,"byteOffset":24740,"byteLength":212,"target":34963}],"buffers":[{"byteLength":24952,"uri":"data:application/octet-stream;base64,"}],"accessors":[{"bufferView":0,"componentType":5126,"count":280,"max":[0.09459187835454941,0.03205375000834465,0],"min":[-0.09459187835454941,-0.03205375000834465,-0.09222062677145004],"type":"VEC3"},{"bufferView":1,"componentType":5126,"count":280,"max":[0.9749281406402588,0.9486986994743347,1],"min":[-0.9749281406402588,-0.9486990571022034,-1],"type":"VEC3"},{"bufferView":2,"componentType":5126,"count":280,"max":[0.16658125817775726,0.6953125],"min":[0.00390625,0.5078125],"type":"VEC2"},{"bufferView":3,"componentType":5123,"count":420,"max":[279],"min":[0],"type":"SCALAR"},{"bufferView":4,"componentType":5126,"count":280,"max":[0.05709187313914299,0.01955375075340271,-0.01875000074505806],"min":[-0.05709187313914299,-0.01955375075340271,-0.07347062230110168],"type":"VEC3"},{"bufferView":5,"componentType":5126,"count":280,"max":[0.9740999937057495,0.9476008415222168,1],"min":[-0.9740999937057495,-0.9476009011268616,-1],"type":"VEC3"},{"bufferView":6,"componentType":5126,"count":280,"max":[0.18359375,0.674472987651825],"min":[0.005480937194079161,0.5078125],"type":"VEC2"},{"bufferView":7,"componentType":5123,"count":420,"max":[279],"min":[0],"type":"SCALAR"},{"bufferView":8,"componentType":5126,"count":77,"max":[0.048880625516176224,0.30000001192092896,0.06875000149011612],"min":[-0.06763062626123428,0,-0.038120001554489136],"type":"VEC3"},{"bufferView":9,"componentType":5126,"count":77,"max":[0.9692023396492004,0.4770772159099579,1],"min":[-0.9692023396492004,-0.11298961937427521,-0.9178054332733154],"type":"VEC3"},{"bufferView":10,"componentType":5126,"count":77,"max":[0.25045469403266907,0.31815779209136963],"min":[0.007646874990314245,0.0039062497671693563],"type":"VEC2"},{"bufferView":11,"componentType":5123,"count":105,"max":[76],"min":[0],"type":"SCALAR"},{"bufferView":12,"componentType":5126,"count":77,"max":[0.03588375076651573,0.15625,0.0420212484896183],"min":[-0.043127499520778656,0,-0.046098750084638596],"type":"VEC3"},{"bufferView":13,"componentType":5126,"count":77,"max":[0.9788557291030884,0.6189860105514526,1],"min":[-0.9788557291030884,-0.159328430891037,-0.8850401639938354],"type":"VEC3"},{"bufferView":14,"componentType":5126,"count":77,"max":[0.3100750148296356,0.38202813267707825],"min":[0.23856249451637268,0.0039062497671693563],"type":"VEC2"},{"bufferView":15,"componentType":5123,"count":105,"max":[76],"min":[0],"type":"SCALAR"}],"materials":[{"pbrMetallicRoughness":{"metallicFactor":0,"roughnessFactor":1,"baseColorTexture":{"index":0}},"alphaMode":"MASK","alphaCutoff":0.05,"doubleSided":true}],"textures":[{"sampler":0,"source":0,"name":"stiched_texture"}],"samplers":[{"magFilter":9728,"minFilter":9728,"wrapS":33071,"wrapT":33071}],"images":[{"mimeType":"image/png","uri":"data:image/png;base64,"}],"meshes":[{"primitives":[{"mode":4,"attributes":{"POSITION":0,"NORMAL":1,"TEXCOORD_0":2},"indices":3,"material":0}]},{"primitives":[{"mode":4,"attributes":{"POSITION":4,"NORMAL":5,"TEXCOORD_0":6},"indices":7,"material":0}]},{"primitives":[{"mode":4,"attributes":{"POSITION":8,"NORMAL":9,"TEXCOORD_0":10},"indices":11,"material":0}]},{"primitives":[{"mode":4,"attributes":{"POSITION":12,"NORMAL":13,"TEXCOORD_0":14},"indices":15,"material":0}]}]}