{"asset":{"version":"2.0","generator":"Blockbench 5.0.4 glTF exporter"},"scenes":[{"nodes":[0,1,2,3],"name":"blockbench_export"}],"scene":0,"nodes":[{"translation":[0,-1.375,0],"name":"cylinder","mesh":0},{"translation":[0,-1.375,0],"name":"cylinder","mesh":1},{"rotation":[0.9990482215818578,0,0,0.04361938736533601],"name":"cuboid_sphere","mesh":2},{"name":"cuboid_sphere","mesh":3}],"bufferViews":[{"buffer":0,"byteOffset":0,"byteLength":624,"target":34962,"byteStride":12},{"buffer":0,"byteOffset":624,"byteLength":624,"target":34962,"byteStride":12},{"buffer":0,"byteOffset":1248,"byteLength":416,"target":34962,"byteStride":8},{"buffer":0,"byteOffset":1664,"byteLength":156,"target":34963},{"buffer":0,"byteOffset":1820,"byteLength":624,"target":34962,"byteStride":12},{"buffer":0,"byteOffset":2444,"byteLength":624,"target":34962,"byteStride":12},{"buffer":0,"byteOffset":3068,"byteLength":416,"target":34962,"byteStride":8},{"buffer":0,"byteOffset":3484,"byteLength":156,"target":34963},{"buffer":0,"byteOffset":3640,"byteLength":3804,"target":34962,"byteStride":12},{"buffer":0,"byteOffset":7444,"byteLength":3804,"target":34962,"byteStride":12},{"buffer":0,"byteOffset":11248,"byteLength":2536,"target":34962,"byteStride":8},{"buffer":0,"byteOffset":13784,"byteLength":848,"target":34963},{"buffer":0,"byteOffset":14632,"byteLength":2688,"target":34962,"byteStride":12},{"buffer":0,"byteOffset":17320,"byteLength":2688,"target":34962,"byteStride":12},{"buffer":0,"byteOffset":20008,"byteLength":1792,"target":34962,"byteStride":8},{"buffer":0,"byteOffset":21800,"byteLength":660,"target":34963}],"buffers":[{"byteLength":22460,"uri":"data:application/octet-stream;base64,"}],"accessors":[{"bufferView":0,"componentType":5126,"count":52,"max":[0.2068375051021576,1.0625,0.0625],"min":[-0.081837497651577,0,-0.0625],"type":"VEC3"},{"bufferView":1,"componentType":5126,"count":52,"max":[0.8366422653198242,0.1827881783246994,1],"min":[-0.8366422653198242,-0.1827881783246994,-1],"type":"VEC3"},{"bufferView":2,"componentType":5126,"count":52,"max":[0.7087740898132324,0.8617843389511108],"min":[0.00148906244430691,0.109375],"type":"VEC2"},{"bufferView":3,"componentType":5123,"count":78,"max":[51],"min":[0],"type":"SCALAR"},{"bufferView":4,"componentType":5126,"count":52,"max":[0.07095187157392502,1.5,0.03125],"min":[-0.2584518790245056,0.4375,-0.03125],"type":"VEC3"},{"bufferView":5,"componentType":5126,"count":52,"max":[0.8678457736968994,0.39809027314186096,1],"min":[-0.8678532838821411,-0.39808738231658936,-1],"type":"VEC3"},{"bufferView":6,"componentType":5126,"count":52,"max":[0.4941484332084656,0.8081468939781189],"min":[0.033195313066244125,0.359375],"type":"VEC2"},{"bufferView":7,"componentType":5123,"count":78,"max":[51],"min":[0],"type":"SCALAR"},{"bufferView":8,"componentType":5126,"count":317,"max":[0.8125,0.5375000238418579,0.5],"min":[-0.1875,-0.3715706169605255,-0.5375000238418579],"type":"VEC3"},{"bufferView":9,"componentType":5126,"count":317,"max":[1,1,1],"min":[-1,-0.9768102169036865,-1],"type":"VEC3"},{"bufferView":10,"componentType":5126,"count":317,"max":[0.7017001509666443,0.7003054618835449],"min":[0.0013976562768220901,0],"type":"VEC2"},{"bufferView":11,"componentType":5123,"count":423,"max":[316],"min":[0],"type":"SCALAR"},{"bufferView":12,"componentType":5126,"count":224,"max":[0.0625,0.25,0.25],"min":[-0.5898043513298035,-0.3125,-0.25],"type":"VEC3"},{"bufferView":13,"componentType":5126,"count":224,"max":[1,1,1],"min":[-0.9870671033859253,-0.957160234451294,-1],"type":"VEC3"},{"bufferView":14,"componentType":5126,"count":224,"max":[0.6906340718269348,0.61328125],"min":[0.0007671875064261258,0],"type":"VEC2"},{"bufferView":15,"componentType":5123,"count":330,"max":[223],"min":[0],"type":"SCALAR"}],"materials":[{"pbrMetallicRoughness":{"metallicFactor":0,"roughnessFactor":1,"baseColorTexture":{"index":0}},"alphaMode":"MASK","alphaCutoff":0.05,"doubleSided":true}],"textures":[{"sampler":0,"source":0,"name":"WillowTree1.png"}],"samplers":[{"magFilter":9728,"minFilter":9728,"wrapS":33071,"wrapT":33071}],"images":[{"mimeType":"image/png","uri":"data:image/png;base64,"}],"meshes":[{"primitives":[{"mode":4,"attributes":{"POSITION":0,"NORMAL":1,"TEXCOORD_0":2},"indices":3,"material":0}]},{"primitives":[{"mode":4,"attributes":{"POSITION":4,"NORMAL":5,"TEXCOORD_0":6},"indices":7,"material":0}]},{"primitives":[{"mode":4,"attributes":{"POSITION":8,"NORMAL":9,"TEXCOORD_0":10},"indices":11,"material":0}]},{"primitives":[{"mode":4,"attributes":{"POSITION":12,"NORMAL":13,"TEXCOORD_0":14},"indices":15,"material":0}]}]}